<svg width="113" height="50" viewBox="0 0 113 50" fill="none" xmlns="http://www.w3.org/2000/svg">
<g clip-path="url(#clip0_474_5625)">
<path d="M67.9849 9.97925H58.3421H55.3147V11.1379C55.9127 11.2126 56.3986 11.25 56.8097 11.3621C57.2956 11.4743 57.632 11.6238 57.8936 11.848C58.6411 12.4834 58.6411 13.7168 58.6411 15.8845V30.573C58.6411 33.563 58.9028 37.7864 54.6794 37.7117C52.848 37.6743 51.0166 36.4035 50.4186 34.0489H48.9609C49.5589 38.0107 51.6893 40.7017 56.8097 40.7017C61.1453 40.7017 65.0323 38.6834 65.0323 31.9185V20.5191V15.8845C65.0323 13.6794 65.0323 12.5581 65.7798 11.8854C66.2657 11.4743 66.6394 11.2874 67.9849 11.1379V10.0166V9.97925Z" fill="#1A222E"/>
<path d="M82.5628 9.97925H69.8926V11.0631V11.1379C71.2007 11.25 71.6492 11.4743 72.0977 11.8854C72.6957 12.4086 72.8078 13.2309 72.8078 14.6885C72.8078 15.137 72.8078 15.5855 72.8078 16.1462V33.7125C72.8078 34.2358 72.8078 34.7217 72.8078 35.1702C72.7705 36.5904 72.6957 37.4874 72.0977 37.9733C71.6118 38.3844 71.2381 38.5713 69.8926 38.7208V38.7956V39.8794H82.5628H82.6002H89.0287L91.047 34.0115H89.5893C88.1317 37.2258 85.8518 37.5996 83.7588 37.5996C82.0395 37.5996 80.9183 37.4874 80.1334 37.0016C79.498 36.5904 79.2738 35.5065 79.2364 33.6378V16.2209V15.8845C79.2364 13.6794 79.2364 12.4834 79.9839 11.848C80.4698 11.4369 81.2547 11.2874 82.6002 11.1753L82.5628 9.97925Z" fill="#1A222E"/>
<path d="M103.643 9.97925H90.9727V11.0631V11.1379C92.2808 11.25 92.7293 11.4743 93.1778 11.8854C93.7758 12.4086 93.8879 13.2309 93.8879 14.6885C93.8879 15.137 93.8879 15.5855 93.8879 16.1462V33.7125C93.8879 34.2358 93.8879 34.7217 93.8879 35.1702C93.8506 36.5904 93.7758 37.4874 93.1778 37.9733C92.6919 38.3844 92.3182 38.5713 90.9727 38.7208V38.7956V39.8794H103.643H103.68H110.109L112.127 34.0115H110.669C109.212 37.2258 106.932 37.5996 104.839 37.5996C103.12 37.5996 101.998 37.4874 101.213 37.0016C100.578 36.5904 100.354 35.5065 100.316 33.6378V16.2209V15.8845C100.316 13.6794 100.316 12.4834 101.064 11.848C101.55 11.4369 102.335 11.2874 103.68 11.1753V9.97925H103.643Z" fill="#1A222E"/>
<path d="M18.6136 48.9616C19.2116 48.7 19.7722 48.3636 20.3329 47.9899C20.445 47.9151 20.5571 47.8404 20.6692 47.7656C21.342 47.2798 21.94 46.7191 22.538 46.0464C23.2855 45.2615 23.9582 44.3645 24.5936 43.4301C25.0795 42.72 25.4906 41.9351 25.9018 41.1502C27.4341 38.0854 28.4433 34.7217 28.9665 31.3953C29.3029 29.2275 29.4524 27.0597 29.4524 24.9294C29.4524 22.799 29.3029 20.6312 28.9665 18.4634C28.4433 15.137 27.4715 11.7359 25.9018 8.70849C25.7149 8.37212 25.528 7.99836 25.3411 7.66199C24.5189 9.157 23.8461 10.7641 23.2855 12.446C24.2946 15.436 24.8926 18.6129 25.1169 21.7525C25.1916 22.799 25.229 23.9202 25.229 24.9667C25.229 26.0132 25.1916 27.1345 25.1169 28.181C24.8553 32.0307 24.0704 35.8803 22.5754 39.4683C22.0147 40.8512 21.342 42.1967 20.5197 43.4675C20.3329 43.7665 20.1833 44.0655 19.9591 44.3645C19.548 44.9625 19.1368 45.5231 18.6883 46.1211C18.1651 46.7565 17.6045 47.3919 16.9691 47.9899C16.3337 48.6253 15.6609 49.1859 14.9134 49.7091C14.8387 49.7465 14.8013 49.7839 14.7266 49.8213V49.896C16.0347 49.8586 17.4176 49.5223 18.6136 48.9616Z" fill="#1A222E"/>
<path d="M26.3873 48.9615C26.9853 48.6999 27.5459 48.3635 28.1066 47.9898C28.2187 47.915 28.3308 47.8403 28.4429 47.7655C30.7228 46.0462 32.4047 43.729 33.6755 41.2248C35.2078 38.1601 36.217 34.7963 36.7402 31.4699C37.0766 29.3021 37.2261 27.1344 37.2261 25.004C37.2261 22.8736 37.0766 20.7058 36.7402 18.5381C36.217 15.2117 35.2452 11.8105 33.6755 8.78313C32.5168 6.46586 30.9471 4.2981 28.9288 2.61621C28.2934 3.28897 27.6954 4.03647 27.1348 4.82135C27.3217 5.08298 27.5085 5.3446 27.6954 5.60623C30.9097 10.3903 32.4795 16.0713 32.8532 21.7897C32.928 22.8362 32.9653 23.9575 32.9653 25.004C32.9653 26.0505 32.928 27.1717 32.8532 28.2183C32.4795 33.9367 30.9097 39.6551 27.6954 44.4017C27.2843 44.9997 26.8732 45.5604 26.4247 46.1584C25.9014 46.7938 25.3408 47.4291 24.7054 48.0271C24.07 48.6625 23.3973 49.2231 22.6498 49.7464C22.575 49.7838 22.5376 49.8211 22.4629 49.8585V49.9333C23.8458 49.8585 25.1913 49.5221 26.3873 48.9615Z" fill="#1A222E"/>
<path d="M36.2535 47.7282C38.5334 46.0089 40.2153 43.6917 41.486 41.1875C43.0184 38.1228 44.0275 34.759 44.5508 31.4326C44.8872 29.2648 45.0367 27.0971 45.0367 24.9667C45.0367 22.8363 44.8872 20.6685 44.5508 18.5007C44.0275 15.1744 43.0558 11.7732 41.486 8.74581C40.2153 6.24167 38.496 3.84965 36.2535 2.20514C34.5342 0.859631 32.4038 0.0373752 30.3108 0V0.0747505C32.3665 1.49501 34.1231 3.4759 35.4686 5.56891C38.6829 10.3529 40.2526 16.034 40.6264 21.7524C40.7011 22.7989 40.7385 23.9202 40.7385 24.9667C40.7385 26.0132 40.7011 27.1344 40.6264 28.1809C40.2526 33.8994 38.6829 39.6178 35.4686 44.3644C34.0857 46.4201 32.3291 48.4009 30.2734 49.8586V49.9333C32.4038 49.8586 34.5342 49.0363 36.2535 47.7282Z" fill="#1A222E"/>
<path d="M26.3857 0.934381C25.7877 1.19601 25.2271 1.53239 24.6664 1.90614C24.5543 1.98089 24.4422 2.05564 24.3301 2.13039C23.6947 2.61627 23.0593 3.1769 22.4613 3.81228C21.7138 4.59716 21.041 5.49416 20.4057 6.42854C19.9198 7.13867 19.5087 7.92355 19.0975 8.70843C17.5651 11.7732 16.556 15.137 16.0328 18.4634C15.6964 20.6311 15.5469 22.7989 15.5469 24.9293C15.5469 27.0597 15.6964 29.2274 16.0328 31.3952C16.556 34.7216 17.5278 38.1228 19.0975 41.1501C19.2844 41.4865 19.4713 41.8603 19.6582 42.1967C20.4804 40.7016 21.1532 39.0945 21.7138 37.4126C20.7047 34.4226 20.1067 31.2457 19.8824 28.1062C19.8077 27.0597 19.7703 25.9384 19.7703 24.8919C19.7703 23.8454 19.8077 22.7242 19.8824 21.6776C20.144 17.828 20.9289 13.9783 22.4239 10.3903C23.0219 9.04481 23.6947 7.66193 24.5169 6.39117C24.7038 6.09217 24.8533 5.79316 25.0776 5.49416C25.4887 4.89616 25.8998 4.33553 26.3483 3.73752C26.8716 3.10215 27.4322 2.46677 28.0676 1.86876C28.703 1.23338 29.3757 0.672754 30.1232 0.149501C30.198 0.112126 30.2353 0.0747505 30.3101 0.0373752V0C28.9646 0.0373752 27.6565 0.373752 26.3857 0.934381Z" fill="#1A222E"/>
<path d="M18.6123 0.934381C18.0143 1.19601 17.4536 1.53239 16.893 1.90614C16.7809 1.98089 16.6687 2.05564 16.5566 2.13039C14.3141 3.84965 12.6322 6.16692 11.3241 8.67106C9.7917 11.7358 8.78257 15.0996 8.25932 18.426C7.92294 20.6311 7.77344 22.7615 7.77344 24.9293C7.77344 27.0597 7.92294 29.2274 8.25932 31.3952C8.78257 34.7216 9.75433 38.1228 11.3241 41.1502C12.4827 43.4674 14.0525 45.6352 16.0707 47.3171C16.7061 46.6443 17.3041 45.8968 17.8648 45.1119C17.6779 44.8503 17.491 44.5887 17.3041 44.327C14.0899 39.543 12.5201 33.862 12.1463 28.1436C12.0716 27.0971 12.0342 25.9758 12.0342 24.9293C12.0342 23.8828 12.0716 22.7615 12.1463 21.715C12.5201 15.9966 14.0899 10.2782 17.3041 5.53154C17.7153 4.93353 18.1264 4.3729 18.5749 3.7749C19.0981 3.13952 19.6588 2.50414 20.2941 1.90614C20.9295 1.30813 21.6023 0.747505 22.3124 0.261627C22.3872 0.224251 22.4245 0.186876 22.4993 0.149501V0C21.1912 0.0373753 19.8456 0.373753 18.6123 0.934381Z" fill="#1A222E"/>
<path d="M8.78318 2.16776C6.50329 3.88703 4.82141 6.20429 3.55065 8.70843C2.01826 11.7732 1.00913 15.137 0.485878 18.4634C0.149501 20.6685 0 22.7989 0 24.9667C0 27.0971 0.149501 29.2648 0.485878 31.4326C1.00913 34.759 1.98089 38.1601 3.55065 41.1875C4.82141 43.6917 6.54067 46.0837 8.78318 47.7282C10.5024 48.9616 12.5955 49.8212 14.7258 49.896V49.8212C12.6328 48.4009 10.9136 46.4201 9.53069 44.327C6.31642 39.543 4.74666 33.862 4.3729 28.1436C4.29815 27.0971 4.26078 25.9758 4.26078 24.9293C4.26078 23.8828 4.29815 22.7615 4.3729 21.715C4.74666 15.9966 6.31642 10.2782 9.53069 5.53154C10.8762 3.4759 12.6328 1.49501 14.7258 0.0747505V0C12.5955 0.0373752 10.4651 0.859631 8.78318 2.16776Z" fill="#1A222E"/>
<path d="M23.8829 47.3544C24.5183 46.6817 25.1163 45.9342 25.6769 45.1493C25.49 44.8877 25.3031 44.626 25.1163 44.3644C24.9294 44.0654 24.7425 43.7664 24.5556 43.4674C23.9576 44.3644 23.2849 45.2988 22.5 46.0837C22.9111 46.5322 23.4344 46.9433 23.8829 47.3544Z" fill="#1A222E"/>
<path d="M28.106 47.9899C27.5827 48.3636 27.0221 48.6626 26.3867 48.9616C27.5827 49.5223 28.9656 49.8586 30.2737 49.896V49.8213C29.5262 49.298 28.7787 48.6626 28.106 47.9899Z" fill="#1A222E"/>
<path d="M21.7902 49.8586C22.0144 49.8212 22.2013 49.7838 22.4256 49.7838C22.2013 49.6343 22.0144 49.4848 21.7902 49.3353C21.2669 48.9242 20.781 48.5131 20.3325 48.0646C19.8093 48.4383 19.2487 48.7373 18.6133 49.0363C19.3982 49.4101 20.2952 49.6717 21.1548 49.8212C21.379 49.7838 21.5659 49.8212 21.7902 49.8586ZM22.5003 49.896V49.8212C22.4629 49.7838 22.4256 49.7838 22.3882 49.7465C22.1639 49.7838 21.9771 49.8212 21.7528 49.8212C22.0144 49.896 22.2761 49.896 22.5003 49.896Z" fill="#1A222E"/>
<path d="M21.1553 2.57886C20.52 3.25161 19.922 3.99912 19.3613 4.784C19.5482 5.04562 19.7351 5.30725 19.922 5.56888C20.1088 5.86788 20.2957 6.16688 20.4826 6.46588C21.0806 5.56888 21.7533 4.6345 22.5382 3.84962C22.0897 3.36374 21.6412 2.95261 21.1553 2.57886Z" fill="#1A222E"/>
<path d="M16.8943 1.94351C17.4176 1.56976 17.9782 1.27076 18.6136 0.971756C17.4176 0.373752 16.0347 0.0373752 14.7266 0V0.0747505C15.5114 0.598004 16.2216 1.23338 16.8943 1.94351Z" fill="#1A222E"/>
<path d="M26.387 0.934381C25.6021 0.560629 24.7051 0.299002 23.8455 0.149501C23.6213 0.112126 23.4344 0.0747505 23.2101 0.0747505C22.9859 0.0373752 22.7616 0 22.5 0V0.0747505C22.5374 0.112126 22.5748 0.112126 22.6121 0.149501C22.8364 0.299002 23.0233 0.448503 23.2475 0.598004C23.7708 1.00913 24.2566 1.42026 24.7051 1.86876C25.2658 1.53239 25.8264 1.19601 26.387 0.934381Z" fill="#1A222E"/>
</g>
<defs>
<clipPath id="clip0_474_5625">
<rect width="112.126" height="49.9333" fill="white"/>
</clipPath>
</defs>
</svg>
