<svg width="112" height="51" viewBox="0 0 112 51" fill="none" xmlns="http://www.w3.org/2000/svg">
<g clip-path="url(#clip0_474_5674)">
<mask id="mask0_474_5674" style="mask-type:luminance" maskUnits="userSpaceOnUse" x="0" y="0" width="112" height="51">
<path d="M111.735 0H0V50.8667H111.735V0Z" fill="white"/>
</mask>
<g mask="url(#mask0_474_5674)">
<mask id="mask1_474_5674" style="mask-type:luminance" maskUnits="userSpaceOnUse" x="0" y="0" width="112" height="51">
<path d="M0 0V50.8667H111.735V0H0Z" fill="white"/>
</mask>
<g mask="url(#mask1_474_5674)">
<path d="M111.053 50.3827L110.828 49.812C110.959 49.6999 110.976 49.6267 110.976 49.5049C110.974 49.2931 110.821 49.1628 110.576 49.1628H110.266V50.384H110.439V49.8353H110.651L110.871 50.3827H111.053ZM110.439 49.696V49.3118H110.555C110.722 49.3118 110.794 49.3838 110.794 49.4978C110.794 49.5982 110.741 49.696 110.555 49.696H110.439Z" fill="#1A222E"/>
</g>
<mask id="mask2_474_5674" style="mask-type:luminance" maskUnits="userSpaceOnUse" x="0" y="0" width="112" height="51">
<path d="M0 0V50.8667H111.735V0H0Z" fill="white"/>
</mask>
<g mask="url(#mask2_474_5674)">
<path d="M110.627 50.8667C110.014 50.8667 109.516 50.3691 109.516 49.7569C109.516 49.1466 110.014 48.6504 110.627 48.6504C111.236 48.6504 111.736 49.1466 111.736 49.7569C111.736 50.3691 111.236 50.8667 110.627 50.8667ZM110.627 48.7903C110.092 48.7903 109.657 49.2263 109.657 49.7569C109.657 50.2933 110.092 50.7235 110.627 50.7235C111.158 50.7235 111.591 50.2933 111.591 49.7569C111.591 49.2263 111.158 48.7903 110.627 48.7903Z" fill="#1A222E"/>
</g>
<mask id="mask3_474_5674" style="mask-type:luminance" maskUnits="userSpaceOnUse" x="0" y="0" width="112" height="51">
<path d="M0 0V50.8667H111.735V0H0Z" fill="white"/>
</mask>
<g mask="url(#mask3_474_5674)">
<path d="M52.1936 39.4321L49.2128 48.6841L45.6224 39.4891H44.7012L49.0178 50.7708H49.4227L52.5084 40.8257L55.6466 50.7708H56.0522L60.3481 39.4891H59.4054L55.8662 48.6763L52.8472 39.4321H52.1936Z" fill="#1A222E"/>
</g>
<mask id="mask4_474_5674" style="mask-type:luminance" maskUnits="userSpaceOnUse" x="0" y="0" width="112" height="51">
<path d="M0 0V50.8667H111.735V0H0Z" fill="white"/>
</mask>
<g mask="url(#mask4_474_5674)">
<path d="M64.0723 39.4794V50.6788H69.5518V49.9571H64.9404V39.4794H64.0723Z" fill="#1A222E"/>
</g>
<mask id="mask5_474_5674" style="mask-type:luminance" maskUnits="userSpaceOnUse" x="0" y="0" width="112" height="51">
<path d="M0 0V50.8667H111.735V0H0Z" fill="white"/>
</mask>
<g mask="url(#mask5_474_5674)">
<path d="M71.1484 39.4794V50.6788H76.6267V49.9571H72.0127V39.4794H71.1484Z" fill="#1A222E"/>
</g>
<mask id="mask6_474_5674" style="mask-type:luminance" maskUnits="userSpaceOnUse" x="0" y="0" width="112" height="51">
<path d="M0 0V50.8667H111.735V0H0Z" fill="white"/>
</mask>
<g mask="url(#mask6_474_5674)">
<path d="M78.1562 50.6788H79.0244V39.4807H78.1562V50.6788Z" fill="#1A222E"/>
</g>
<mask id="mask7_474_5674" style="mask-type:luminance" maskUnits="userSpaceOnUse" x="0" y="0" width="112" height="51">
<path d="M0 0V50.8667H111.735V0H0Z" fill="white"/>
</mask>
<g mask="url(#mask7_474_5674)">
<path d="M61.6035 50.6788H62.4768V39.4807H61.6035V50.6788Z" fill="#1A222E"/>
</g>
<mask id="mask8_474_5674" style="mask-type:luminance" maskUnits="userSpaceOnUse" x="0" y="0" width="112" height="51">
<path d="M0 0V50.8667H111.735V0H0Z" fill="white"/>
</mask>
<g mask="url(#mask8_474_5674)">
<path d="M84.8808 39.4211L80.25 50.6788H81.0572L82.6438 46.8105H87.5396L89.1223 50.6788H89.9341L85.3045 39.4211H84.8808ZM85.0836 40.8296L87.2449 46.0927H82.9399L85.0836 40.8296Z" fill="#1A222E"/>
</g>
<mask id="mask9_474_5674" style="mask-type:luminance" maskUnits="userSpaceOnUse" x="0" y="0" width="112" height="51">
<path d="M0 0V50.8667H111.735V0H0Z" fill="white"/>
</mask>
<g mask="url(#mask9_474_5674)">
<path d="M100.527 39.5015L96.267 44.6998L92.0068 39.5015H91.1367V50.6788H92.0068V40.7674H92.0392L96.267 45.9897L100.492 40.7674H100.527V50.6788H101.397V39.5015H100.527Z" fill="#1A222E"/>
</g>
<mask id="mask10_474_5674" style="mask-type:luminance" maskUnits="userSpaceOnUse" x="0" y="0" width="112" height="51">
<path d="M0 0V50.8667H111.735V0H0Z" fill="white"/>
</mask>
<g mask="url(#mask10_474_5674)">
<path d="M108.582 41.3154C107.875 40.4013 106.869 40.1843 106.097 40.1843C104.755 40.1843 103.74 41.1036 103.74 42.3196C103.74 45.2991 109.063 43.8757 109.063 47.792C109.063 49.5114 107.639 50.8537 105.818 50.8537C104.901 50.8537 103.918 50.6037 102.95 49.8703V48.8551C104.04 49.8885 104.901 50.0524 105.769 50.0524C107.098 50.0524 108.125 49.0845 108.125 47.8237C108.125 44.6447 102.805 46.0357 102.805 42.352C102.805 40.6993 104.243 39.3887 106.017 39.3835C106.918 39.3835 108.068 39.7522 108.582 40.3663V41.3154Z" fill="#1A222E"/>
</g>
<mask id="mask11_474_5674" style="mask-type:luminance" maskUnits="userSpaceOnUse" x="0" y="0" width="112" height="51">
<path d="M0 0V50.8667H111.735V0H0Z" fill="white"/>
</mask>
<g mask="url(#mask11_474_5674)">
<path d="M16.707 39.5144V50.7099H22.4625V49.2633H18.3156V39.5144H16.707Z" fill="#1A222E"/>
</g>
<mask id="mask12_474_5674" style="mask-type:luminance" maskUnits="userSpaceOnUse" x="0" y="0" width="112" height="51">
<path d="M0 0V50.8667H111.735V0H0Z" fill="white"/>
</mask>
<g mask="url(#mask12_474_5674)">
<path d="M23.4922 39.5144V50.7099H29.2477V49.2633H25.1014V39.5144H23.4922Z" fill="#1A222E"/>
</g>
<mask id="mask13_474_5674" style="mask-type:luminance" maskUnits="userSpaceOnUse" x="0" y="0" width="112" height="51">
<path d="M0 0V50.8667H111.735V0H0Z" fill="white"/>
</mask>
<g mask="url(#mask13_474_5674)">
<path d="M30.2852 39.5144V50.7099H36.787V49.2633H31.8938V45.7863H36.4767V44.3396H31.8938V40.9585H36.6386V39.5144H30.2852Z" fill="#1A222E"/>
</g>
<mask id="mask14_474_5674" style="mask-type:luminance" maskUnits="userSpaceOnUse" x="0" y="0" width="112" height="51">
<path d="M0 0V50.8667H111.735V0H0Z" fill="white"/>
</mask>
<g mask="url(#mask14_474_5674)">
<path d="M45.0498 50.7073L42.9766 45.4772C44.2095 44.4588 44.3488 43.7675 44.3352 42.6474C44.3177 40.7103 42.9261 39.5144 40.6593 39.5144H37.8359V50.7112H39.4452V45.7046C39.4452 45.7046 40.7739 45.7059 41.3622 45.702L43.3861 50.7073H45.0498ZM39.4452 44.4076V40.8937H40.4785C42.0385 40.8937 42.6624 41.5351 42.6793 42.5839C42.6961 43.522 42.2025 44.4076 40.4785 44.4076H39.4452Z" fill="#1A222E"/>
</g>
<mask id="mask15_474_5674" style="mask-type:luminance" maskUnits="userSpaceOnUse" x="0" y="0" width="112" height="51">
<path d="M0 0V50.8667H111.735V0H0Z" fill="white"/>
</mask>
<g mask="url(#mask15_474_5674)">
<path d="M9.16602 39.5144V50.6918H15.6549V49.2471H10.7727V45.7739H15.3446V44.3325H10.7727V40.9572H15.5085V39.5144H9.16602Z" fill="#1A222E"/>
</g>
<mask id="mask16_474_5674" style="mask-type:luminance" maskUnits="userSpaceOnUse" x="0" y="0" width="112" height="51">
<path d="M0 0V50.8667H111.735V0H0Z" fill="white"/>
</mask>
<g mask="url(#mask16_474_5674)">
<path d="M6.30232 39.5144L5.73416 40.1292L1.61188 44.6149V39.5144H0.00585938V50.6691H1.61188V46.8397L3.39866 44.8818L5.73805 50.6717H7.3959V50.6704L6.81089 49.2309L4.54341 43.625L6.98386 40.9533L8.29835 39.5144H6.30232Z" fill="#1A222E"/>
</g>
<mask id="mask17_474_5674" style="mask-type:luminance" maskUnits="userSpaceOnUse" x="0" y="0" width="112" height="51">
<path d="M0 0V50.8667H111.735V0H0Z" fill="white"/>
</mask>
<g mask="url(#mask17_474_5674)">
<path d="M0 0V33.8671H4.72542V25.9231L8.19078 22.4791L13.0101 33.8671H17.7978L11.4333 18.7572L15.9015 13.807L24.5665 33.8671H26.3857L32.8869 18.3517L39.493 33.8671H41.2862L51.188 11.0258H46.3395L40.3793 24.8846L34.5985 11.0258H31.2543L25.4249 24.8846L19.4316 11.0258H13.1468L4.72542 19.431V0H0Z" fill="#1A222E"/>
</g>
</g>
</g>
<defs>
<clipPath id="clip0_474_5674">
<rect width="111.735" height="50.8667" fill="white"/>
</clipPath>
</defs>
</svg>
