<svg width="112" height="46" viewBox="0 0 112 46" fill="none" xmlns="http://www.w3.org/2000/svg">
<path d="M84.6719 9.62704C84.1047 8.99504 83.1486 8.39545 81.998 8.39545C78.3033 8.39545 77.0879 11.7013 77.0879 14.8127C77.0879 17.7134 78.3519 20.5817 81.836 20.5817C82.7921 20.5817 83.9102 20.0307 84.2668 19.4311V20.4359C84.2668 22.2346 84.1209 23.0935 81.7874 23.0935C80.6692 23.0935 79.3566 22.6884 78.206 22.0888L77.4444 24.2441C78.9515 24.9895 80.3775 25.4432 81.9494 25.4432C83.1648 25.4432 84.8826 25.2488 85.9845 24.2927C87.1513 23.3366 87.1999 21.635 87.1999 19.9821L87.2161 8.36304L84.8988 8.73575C84.8988 8.70334 84.7205 9.36775 84.6719 9.62704ZM84.2668 15.704C84.2668 16.2549 84.2181 16.8059 84.0075 17.2597C83.7482 17.8106 83.2458 18.1671 82.5976 18.1671C80.734 18.1671 80.5234 16.8707 80.5234 14.4076C80.5234 12.2037 80.9285 10.9072 82.549 10.9072C83.3593 10.9072 83.9589 11.3124 84.2668 11.6527V15.704Z" fill="#1A222E"/>
<path d="M73.2306 38.0022L73.2468 33.9996C73.2468 32.768 73.1982 32.3952 73.0361 31.8929C72.5824 30.5965 71.2211 29.8348 69.1955 29.8348C68.0774 29.8348 67.0726 30.0293 65.9059 30.5317C65.2577 30.8071 64.6257 31.1637 64.0261 31.5202L65.1766 33.562C66.6027 32.6707 67.7208 32.3142 68.7256 32.3142C69.8923 32.3142 70.1678 32.8328 70.1678 34.1292V34.5829H69.4386C65.6466 34.5829 63.7344 35.8794 63.7344 38.6342C63.7344 40.7733 64.9011 42.1021 67.1375 42.3128H68.4015C69.1145 42.2318 69.7141 42.0049 70.2002 41.697C70.4595 41.5511 70.7026 41.2919 70.9619 41.0326C71.2211 41.5349 71.7073 42.0049 72.2583 42.3128L72.631 42.491L72.793 42.3128L74.3974 40.595C73.344 39.801 73.2306 39.2176 73.2306 38.0022ZM68.4501 40.1089C67.6398 40.1089 67.0888 39.4607 67.0888 38.5532C67.0888 37.1434 67.8019 36.6248 69.9733 36.6248H70.1516V39.3797C69.6817 39.882 69.0497 40.1089 68.4501 40.1089Z" fill="#1A222E"/>
<path d="M15.9137 4.37659H3.32227V16.8707L9.65847 23.1745L22.2661 10.6804L15.9137 4.37659Z" fill="#1A222E"/>
<path d="M3.32227 29.4784V41.9887H15.9137L22.2661 35.6849L9.65847 23.1746L3.32227 29.4784Z" fill="#1A222E"/>
<path d="M28.6018 41.9887H41.1284V29.3811L34.8732 23.1746L22.2656 35.6849L28.6018 41.9887Z" fill="#1A222E"/>
<path d="M22.2656 10.6804L34.8732 23.1745L41.1284 16.968V4.37659H28.6018L22.2656 10.6804Z" fill="#1A222E"/>
<path d="M107.781 18.3131C107.23 18.4589 106.971 18.5724 106.679 18.5724C105.609 18.5724 105.318 18.1672 105.318 16.6601V10.7453H107.279L108.089 8.58999H105.318V5.33276L102.239 5.83512V8.58999H101.023V10.7453H102.239V17.1625C102.239 18.2645 102.239 18.4589 102.433 18.9775C102.79 20.0308 104.054 20.7276 105.609 20.7276C106.42 20.7276 107.279 20.5332 108.186 20.1767L107.781 18.3131Z" fill="#1A222E"/>
<path d="M50.4805 12.0416L55.3582 20.4197H59.4743L53.8835 11.7985L58.9233 4.37659H55.0827L50.4805 11.7013V4.37659H47.207V20.4197H50.4805V12.0416Z" fill="#1A222E"/>
<path d="M65.5981 10.9883C66.457 10.9883 66.7001 11.5393 66.7001 12.8843V20.4035H69.7304V11.7986C69.7304 11.0369 69.6818 10.5508 69.536 10.097C69.1795 9.09233 67.9641 8.39551 66.6514 8.39551C65.9384 8.39551 65.1444 8.54135 64.5286 8.89787C64.0262 9.15715 63.5239 9.54607 63.1673 9.99982L62.9729 8.42792L60.3477 8.84925V20.4197H63.4752V13.4515C63.4752 12.5926 63.7345 11.993 64.1397 11.6041C64.5934 11.199 65.0958 10.9883 65.5981 10.9883Z" fill="#1A222E"/>
<path d="M72.0977 20.4197H75.2415V8.34692L72.0977 8.83308V20.4197Z" fill="#1A222E"/>
<path d="M96.0164 8.29829C94.6552 8.29829 93.4884 8.80065 92.6295 9.74055C92.6295 9.59471 92.6782 8.88168 92.6782 8.54137V4.08496L89.502 4.60352V20.4359H92.6782V13.9053C92.6782 12.8033 92.824 12.1713 93.1805 11.75C93.6505 11.199 94.4445 10.8911 95.1575 10.8911C96.065 10.8911 96.3729 11.3935 96.3729 12.4954V20.4197H99.4033V12.1551C99.4033 11.0046 99.3547 10.648 99.0954 9.99983C98.7389 8.9465 97.5397 8.29829 96.0164 8.29829Z" fill="#1A222E"/>
<path d="M73.6862 3.42053C72.6167 3.42053 71.7578 4.2794 71.7578 5.34894C71.7578 6.41848 72.6167 7.27735 73.6862 7.27735C74.7558 7.27735 75.6146 6.41848 75.6146 5.34894C75.6146 4.29561 74.7558 3.42053 73.6862 3.42053Z" fill="#1A222E"/>
<path d="M47.1738 41.9077H50.35V34.7937H54.4985V32.2009H50.35V28.4413H55.5033L55.9084 25.8809H47.1738V41.9077Z" fill="#1A222E"/>
<path d="M59.1972 31.6336L58.8893 30.0293L56.3613 30.4345V41.9077H59.4889V34.583C59.4889 33.9834 59.5861 33.481 59.9427 33.0921C60.2506 32.768 60.7529 32.5411 61.3201 32.5411C61.6766 32.5411 62.0817 32.6384 62.3896 32.7842L63.1837 30.0293C62.6813 29.8349 62.4707 29.7863 62.0169 29.7863C60.8502 29.7863 59.6996 30.8396 59.1972 31.6336Z" fill="#1A222E"/>
<path d="M87.5898 26.1888V41.9077H90.7174V35.1988V25.6864L87.5898 26.1888Z" fill="#1A222E"/>
<path d="M97.5878 30.078H93.7958L90.7168 35.1988L94.7843 41.9077H98.4466L93.7472 35.053L97.5878 30.078Z" fill="#1A222E"/>
<path d="M82.1436 29.8835C81.4306 29.8835 80.6204 30.0294 80.0208 30.3859C79.5184 30.6452 79.016 31.0341 78.6595 31.4879L78.4651 29.916L75.8398 30.3373V41.9078H78.9674V34.9395C78.9674 34.0807 79.2267 33.4811 79.6318 33.076C80.0856 32.6708 80.5879 32.4764 81.0903 32.4764C81.9492 32.4764 82.2085 33.0273 82.2085 34.3886V41.9078H85.2388V33.2866C85.2388 32.5412 85.1902 32.0388 85.0444 31.5851C84.6716 30.5966 83.4563 29.8835 82.1436 29.8835Z" fill="#1A222E"/>
</svg>
