<svg width="112" height="21" viewBox="0 0 112 21" fill="none" xmlns="http://www.w3.org/2000/svg">
<g clip-path="url(#clip0_474_5765)">
<path d="M15.5696 6.99378V6.84417C15.5696 4.89941 14.9713 3.25386 13.7745 2.13182C12.4281 0.86026 10.4086 0.187059 8.01497 0.187059H0.0117188V20.4573H4.57451V13.8752H7.19244L11.0818 20.4573H16.2428L11.7549 12.9776C13.4753 12.1548 15.5696 10.5094 15.5696 6.99378ZM11.0068 7.06857C11.0068 8.93853 9.73526 10.0604 7.64098 10.0604H4.57421V4.15138H7.64098C9.81012 4.15138 11.0068 5.12376 11.0068 7.06857ZM79.6721 0.112427L72.0426 20.4576H76.6054L78.1761 16.1193H85.2819L86.8526 20.4576H91.5649L83.9354 0.112427H79.6721ZM83.8609 12.3045H79.5226L81.6917 6.09637L83.8609 12.3045ZM104.804 10.1353L110.863 0.262004H105.851L102.261 6.69459L98.7457 0.262004H93.5098L99.4937 10.2103L93.2107 20.5323H98.2221L102.037 13.7257L105.852 20.5323H111.013L104.804 10.1353ZM24.9186 16.5679V12.2296H33.0716V8.34019H24.9186V4.15141H34.1188V0.187091H20.4306V20.4573H28.9575L31.0519 16.5679H24.9186ZM63.8126 0.187091L59.2498 6.76922L54.6124 0.187091H54.5374L49.9 9.01331V20.4573H54.313V7.89126L59.0999 14.0994V14.1742H59.3244L64.1863 7.89115V20.4572H68.5993V0.186978L63.8126 0.187091Z" fill="#1A222E"/>
<path d="M44.3015 0.184937L33.6055 20.455H39.1405L49.8364 0.184937H44.3015Z" fill="#1A222E"/>
</g>
<defs>
<clipPath id="clip0_474_5765">
<rect width="111.062" height="20.5333" fill="white"/>
</clipPath>
</defs>
</svg>
