<svg width="56" height="57" viewBox="0 0 56 57" fill="none" xmlns="http://www.w3.org/2000/svg">
<g clip-path="url(#clip0_474_5670)">
<path d="M56 0.111816H0V56.1122H56V0.111816Z" fill="white"/>
<path d="M8.16379 52.5463C5.2995 52.5463 3.35742 51.0794 3.35742 48.3551V48.2502H4.92968V48.3198C4.92968 50.101 6.22171 51.1498 8.17745 51.1498C9.22533 51.1498 11.2162 50.6954 11.2162 49.0183C11.2162 45.7707 3.74169 48.0757 3.74169 43.4303C3.74169 41.09 5.92155 40.0421 8.08696 40.0421C10.6366 40.0421 12.3689 41.5086 12.3689 43.8843V43.9891H10.7975V43.8843C10.7975 42.3473 9.71443 41.439 7.96757 41.439C6.74509 41.439 5.31305 41.9629 5.31305 43.3607C5.31305 46.3994 12.7876 44.2681 12.7876 48.9488C12.7876 51.4284 10.4684 52.5463 8.16379 52.5463ZM23.5683 52.1972C23.4289 51.8479 23.3297 50.6603 23.3297 50.1019V43.6745C23.3297 41.1248 21.7646 40.0421 19.0397 40.0421C16.5253 40.0421 14.3246 41.16 14.3246 43.9194V44.0243H15.8968V43.9194C15.8968 42.1374 17.2241 41.4397 18.8661 41.4397C20.8217 41.4397 21.7295 42.1374 21.7295 43.7097C21.7295 44.9316 21.1363 45.0717 20.018 45.2113L19.4248 45.2818C16.6654 45.5957 13.8356 45.9102 13.8356 49.0532C13.8356 51.2189 15.303 52.5462 17.7485 52.5462C19.8788 52.5462 21.2405 51.6036 21.8344 50.3107C21.8344 50.3107 21.8344 51.5684 22.0089 52.1971H23.5683V52.1972ZM21.7295 47.6215C21.7295 48.5296 21.4156 49.3682 20.8217 49.997C20.0884 50.7299 19.0398 51.1494 17.8526 51.1494C16.7005 51.1494 15.4077 50.5206 15.4077 49.0188C15.4077 47.2024 17.3635 46.7837 19.4592 46.5384L20.5769 46.3991C20.8921 46.3647 21.4854 46.2591 21.7296 46.0501V47.6215H21.7295ZM33.7094 40.3911H33.5701H32.0282L28.8197 50.3953L25.5769 40.3911H23.7556L27.9471 52.1969H29.6587L33.7094 40.3911ZM36.3823 37.2839C36.3823 36.6598 35.8691 36.1831 35.2825 36.1831C34.6956 36.1831 34.1825 36.6598 34.1825 37.2471C34.1825 37.8708 34.6956 38.347 35.2825 38.347C35.8691 38.347 36.3823 37.8708 36.3823 37.2471V37.2839ZM36.1204 52.1969V40.3911H36.0156H34.4785V52.1969H36.1204ZM39.3682 52.1969V35.9202H39.2641H37.7271V52.1969H39.3682ZM42.5832 52.1969V35.9202H42.4782H40.9413V52.1969H42.5832ZM48.331 52.5463C50.6373 52.5463 52.9556 51.4284 52.9556 48.9488C52.9556 44.2681 45.4467 46.3994 45.4467 43.3607C45.4467 41.9629 46.8779 41.439 48.1349 41.439C49.8817 41.439 50.9647 42.3472 50.9647 43.8843V43.9891H52.5362V43.8843C52.5362 41.5087 50.8038 40.0421 48.2197 40.0421C46.0535 40.0421 43.8744 41.09 43.8744 43.4303C43.8744 48.0757 51.3834 45.7707 51.3834 49.0183C51.3834 50.6955 49.3581 51.1498 48.311 51.1498C46.3888 51.1498 45.0616 50.1012 45.0616 48.3198V48.2502H43.4894V48.3551C43.4894 51.0794 45.4322 52.5463 48.331 52.5463Z" fill="#1A222E"/>
</g>
<rect x="0.5" y="0.5" width="55" height="55.224" stroke="#1A222E"/>
<defs>
<clipPath id="clip0_474_5670">
<rect width="56" height="56.224" fill="white"/>
</clipPath>
</defs>
</svg>
