<svg width="18" height="18" viewBox="0 0 18 18" fill="none" xmlns="http://www.w3.org/2000/svg">
<path fill-rule="evenodd" clip-rule="evenodd" d="M10 2C11.3062 2 12.4175 2.83481 12.8293 4H15C15.5523 4 16 4.44772 16 5C16 5.55228 15.5523 6 15 6H12.8293C12.4175 7.16519 11.3062 8 10 8C8.68867 8 7.57385 7.15864 7.1659 5.9863C7.11194 5.99531 7.05652 6 7 6L3 6C2.44772 6 2 5.55228 2 5C2 4.44772 2.44772 4 3 4L7 4C7.05652 4 7.11194 4.00469 7.1659 4.0137C7.57384 2.84136 8.68867 2 10 2ZM10 6C10.5523 6 11 5.55228 11 5C11 4.44772 10.5523 4 10 4C9.44772 4 9 4.44772 9 5C9 5.55228 9.44772 6 10 6Z" fill="#1A222E"/>
<path fill-rule="evenodd" clip-rule="evenodd" d="M7 16C8.31133 16 9.42615 15.1586 9.8341 13.9863C9.88806 13.9953 9.94348 14 10 14H15C15.5523 14 16 13.5523 16 13C16 12.4477 15.5523 12 15 12H10C9.94348 12 9.88806 12.0047 9.8341 12.0137C9.42615 10.8414 8.31133 10 7 10C5.69378 10 4.58254 10.8348 4.17071 12H3C2.44772 12 2 12.4477 2 13C2 13.5523 2.44772 14 3 14H4.17071C4.58254 15.1652 5.69378 16 7 16ZM7 14C7.55229 14 8 13.5523 8 13C8 12.4477 7.55229 12 7 12C6.44772 12 6 12.4477 6 13C6 13.5523 6.44772 14 7 14Z" fill="#1A222E"/>
</svg>
