<svg width="18" height="18" viewBox="0 0 18 18" fill="none" xmlns="http://www.w3.org/2000/svg">
<path d="M8.08619 4.05607L7.00236 6.49469C6.90181 6.72092 6.72092 6.90181 6.49469 7.00236L4.05608 8.08619C3.26426 8.43811 3.26426 9.56189 4.05607 9.91381L6.49469 10.9976C6.72092 11.0982 6.90181 11.2791 7.00236 11.5053L8.08619 13.9439C8.43811 14.7357 9.56189 14.7357 9.91381 13.9439L10.9976 11.5053C11.0982 11.2791 11.2791 11.0982 11.5053 10.9976L13.9439 9.91381C14.7357 9.56189 14.7357 8.43811 13.9439 8.08619L11.5053 7.00236C11.2791 6.90181 11.0982 6.72092 10.9976 6.49469L9.91381 4.05608C9.56189 3.26426 8.43811 3.26426 8.08619 4.05607Z" stroke="#1A222E" stroke-width="2"/>
<path d="M2.5 1V4M4 2.5H1" stroke="#1A222E" stroke-width="2" stroke-linecap="round"/>
<path d="M15.5 14V17M17 15.5H14" stroke="#1A222E" stroke-width="2" stroke-linecap="round"/>
</svg>
