<svg width="18" height="18" viewBox="0 0 18 18" fill="none" xmlns="http://www.w3.org/2000/svg">
<path d="M2 6V15C2 16.1046 2.89543 17 4 17H14C15.1046 17 16 16.1046 16 15V6" stroke="#1A222E" stroke-width="2" stroke-linecap="round" stroke-linejoin="round"/>
<path d="M1 2C1 1.44772 1.44772 1 2 1H16C16.5523 1 17 1.44772 17 2V5C17 5.55228 16.5523 6 16 6H2C1.44772 6 1 5.55228 1 5V2Z" stroke="#1A222E" stroke-width="2"/>
<path d="M12 9C12 9.55228 11.5523 10 11 10L7 10C6.44772 10 6 9.55228 6 9L6 7C6 6.44771 6.44772 6 7 6L11 6C11.5523 6 12 6.44772 12 7L12 9Z" stroke="#1A222E" stroke-width="2"/>
</svg>
