<svg width="18" height="18" viewBox="0 0 18 18" fill="none" xmlns="http://www.w3.org/2000/svg">
<path d="M9 7L13.7929 2.20711C14.1834 1.81658 14.8166 1.81658 15.2071 2.20711L15.7929 2.79289C16.1834 3.18342 16.1834 3.81658 15.7929 4.20711L11 9" stroke="#1A222E" stroke-width="2"/>
<path d="M2.41421 10.5858L6.58579 6.41421C7.36684 5.63317 8.63316 5.63316 9.41421 6.41421L11.5858 8.58579C12.3668 9.36684 12.3668 10.6332 11.5858 11.4142L7.58579 15.4142C7.21071 15.7893 6.70201 16 6.17157 16H6H5.82843C5.29799 16 4.78929 15.7893 4.41421 15.4142L2.41421 13.4142C1.63316 12.6332 1.63316 11.3668 2.41421 10.5858Z" stroke="#1A222E" stroke-width="2"/>
<path d="M5 7L11 13" stroke="#1A222E" stroke-width="2"/>
<path d="M6 16L16 16" stroke="#1A222E" stroke-width="2" stroke-linecap="round"/>
</svg>
