<svg width="18" height="18" viewBox="0 0 18 18" fill="none" xmlns="http://www.w3.org/2000/svg">
<path d="M2 7C2 5.89543 2.89543 5 4 5H10C11.1046 5 12 5.89543 12 7V15C12 16.1046 11.1046 17 10 17H4C2.89543 17 2 16.1046 2 15V7Z" stroke="#1A222E" stroke-width="2"/>
<path d="M12 13H14C15.1046 13 16 12.1046 16 11V3C16 1.89543 15.1046 1 14 1H8C6.89543 1 6 1.89543 6 3V5" stroke="#1A222E" stroke-width="2"/>
<path d="M7 9V13" stroke="#1A222E" stroke-width="2" stroke-linecap="round"/>
<path d="M9 11L5 11" stroke="#1A222E" stroke-width="2" stroke-linecap="round"/>
</svg>
