<svg width="18" height="18" viewBox="0 0 18 18" fill="none" xmlns="http://www.w3.org/2000/svg">
<rect x="8" width="2" height="3" rx="1" fill="#1A222E"/>
<rect y="10" width="2" height="3" rx="1" transform="rotate(-90 0 10)" fill="#1A222E"/>
<rect x="15" y="10" width="2" height="3" rx="1" transform="rotate(-90 15 10)" fill="#1A222E"/>
<rect x="1.6001" y="3" width="2" height="3" rx="1" transform="rotate(-45 1.6001 3)" fill="#1A222E"/>
<rect width="2" height="3" rx="1" transform="matrix(0.707107 0.707107 0.707107 -0.707107 12.8999 3.70703)" fill="#1A222E"/>
<rect width="2" height="3" rx="1" transform="matrix(1 0 0 -1 8 17.9963)" fill="#1A222E"/>
<rect width="2" height="3" rx="1" transform="matrix(0.707107 0.707107 0.707107 -0.707107 1.60156 14.9963)" fill="#1A222E"/>
<rect x="12.8984" y="14.2893" width="2" height="3" rx="1" transform="rotate(-45 12.8984 14.2893)" fill="#1A222E"/>
<circle cx="9" cy="9" r="4" stroke="#1A222E" stroke-width="2"/>
</svg>
