<svg width="18" height="18" viewBox="0 0 18 18" fill="none" xmlns="http://www.w3.org/2000/svg">
<path d="M13.0938 2C14.2391 2 15.1464 2.37463 15.8857 3.11523C16.6247 3.85544 16.9999 4.76628 17 5.91895C17 7.37704 16.4607 8.75249 15.2949 10.0684C14.018 11.5096 12.5399 12.9919 10.8594 14.5156L10.8496 14.5254L9.46875 15.8125C9.38172 15.8931 9.30932 15.9334 9.25293 15.9541C9.16537 15.9862 9.08264 16 9 16C8.91736 16 8.83463 15.9862 8.74707 15.9541C8.71883 15.9437 8.68644 15.9279 8.65039 15.9053L8.53125 15.8125L7.15039 14.5254L7.14062 14.5156L6.51953 13.9463C5.09354 12.6221 3.82232 11.3294 2.70508 10.0684C1.53933 8.75249 1 7.37704 1 5.91895C1.0001 4.7655 1.37444 3.85429 2.11133 3.11426C2.84808 2.37438 3.75346 2 4.89844 2C5.55027 2 6.15598 2.13833 6.72754 2.41406C7.29867 2.68965 7.796 3.08443 8.22266 3.61133C8.4093 3.84184 8.68879 3.97808 8.98535 3.98242C9.28196 3.98671 9.56552 3.85882 9.75879 3.63379C10.2245 3.09148 10.741 2.68909 11.3076 2.41113C11.8665 2.13705 12.4578 2.00004 13.0938 2Z" stroke="#1A222E" stroke-width="2" stroke-linejoin="round"/>
</svg>
