<svg width="18" height="18" viewBox="0 0 18 18" fill="none" xmlns="http://www.w3.org/2000/svg">
<path d="M1.22168 1.22192L8.99985 9.0001L16.778 16.7783" stroke="#1A222E" stroke-width="2" stroke-linecap="round"/>
<path d="M4.80762 3.39355C3.103 4.67028 2 6.70639 2 9C2 12.866 5.13401 16 9 16C11.2937 16 13.3287 14.8961 14.6055 13.1914L16.0303 14.6162C14.381 16.678 11.8456 18 9 18C4.02944 18 0 13.9706 0 9C0 6.15446 1.32109 3.61799 3.38281 1.96875L4.80762 3.39355Z" fill="#1A222E"/>
<path d="M7.70898 6.29492C6.69907 6.77778 6 7.80591 6 9C6 10.6569 7.34315 12 9 12C10.1943 12 11.2213 11.3002 11.7041 10.29L13.1709 11.7568C12.2758 13.1083 10.7424 14 9 14C6.23858 14 4 11.7614 4 9C4 7.25773 4.89087 5.72321 6.24219 4.82812L7.70898 6.29492Z" fill="#1A222E"/>
<path d="M9 0C13.9706 0 18 4.02944 18 9C18 10.3894 17.6843 11.705 17.1221 12.8799L15.5938 11.3516C15.8559 10.6165 16 9.82514 16 9C16 5.13401 12.866 2 9 2C8.17465 2 7.38271 2.14296 6.64746 2.40527L5.11914 0.876953C6.29416 0.314566 7.61039 0 9 0Z" fill="#1A222E"/>
<path d="M9 4C11.7614 4 14 6.23858 14 9C14 9.24006 13.9819 9.476 13.9492 9.70703L8.29199 4.0498C8.52328 4.01702 8.75966 4 9 4Z" fill="#1A222E"/>
</svg>
