<svg width="18" height="18" viewBox="0 0 18 18" fill="none" xmlns="http://www.w3.org/2000/svg">
<path d="M9 15L7 13" stroke="#1A222E" stroke-width="2" stroke-linecap="round" stroke-linejoin="round"/>
<path d="M15 9L13 7" stroke="#1A222E" stroke-width="2" stroke-linecap="round" stroke-linejoin="round"/>
<path d="M12 12L9 9" stroke="#1A222E" stroke-width="2" stroke-linecap="round" stroke-linejoin="round"/>
<path d="M1.58579 10.4142L10.4142 1.58579C10.7893 1.21071 11.298 1 11.8284 1H12.1716C12.702 1 13.2107 1.21071 13.5858 1.58579L16.4142 4.41421C16.7893 4.78929 17 5.29799 17 5.82843V6.17157C17 6.70201 16.7893 7.21071 16.4142 7.58579L7.58579 16.4142C7.21071 16.7893 6.70201 17 6.17157 17H5.82843C5.29799 17 4.78929 16.7893 4.41421 16.4142L1.58579 13.5858C1.21071 13.2107 1 12.702 1 12.1716V11.8284C1 11.298 1.21071 10.7893 1.58579 10.4142Z" stroke="#1A222E" stroke-width="2" stroke-linejoin="round"/>
</svg>
