<svg width="18" height="18" viewBox="0 0 18 18" fill="none" xmlns="http://www.w3.org/2000/svg">
<path d="M15.5858 7.41421L10.4142 12.5858C9.63317 13.3668 8.36684 13.3668 7.58579 12.5858L5.41422 10.4142C4.63317 9.63316 4.63317 8.36683 5.41422 7.58578L10.5858 2.41421C11.3668 1.63316 12.6332 1.63316 13.4142 2.41421L15.5858 4.58579C16.3668 5.36684 16.3668 6.63316 15.5858 7.41421Z" stroke="#1A222E" stroke-width="2"/>
<path d="M12 12L6 6" stroke="#1A222E" stroke-width="2"/>
<path d="M4.5 13.3789L4.90896 14.1968C5.10249 14.5839 5.41634 14.8977 5.80339 15.0913L6.62132 15.5002L5.80339 15.9092C5.41634 16.1027 5.10249 16.4166 4.90896 16.8036L4.5 17.6215L4.09104 16.8036C3.89751 16.4166 3.58366 16.1027 3.19661 15.9092L2.37868 15.5002L3.19661 15.0913C3.58366 14.8977 3.89751 14.5839 4.09104 14.1968L4.5 13.3789Z" fill="#1A222E"/>
<path d="M2.12109 10.8789L2.23709 11.1109C2.43062 11.498 2.74446 11.8118 3.13152 12.0053L3.36351 12.1213L3.13152 12.2373C2.74446 12.4308 2.43062 12.7447 2.23709 13.1317L2.12109 13.3637L2.0051 13.1317C1.81157 12.7447 1.49773 12.4308 1.11067 12.2373L0.87868 12.1213L1.11067 12.0053C1.49773 11.8118 1.81157 11.498 2.0051 11.1109L2.12109 10.8789Z" fill="#1A222E"/>
</svg>
