<svg width="18" height="18" viewBox="0 0 18 18" fill="none" xmlns="http://www.w3.org/2000/svg">
<path d="M9.04102 2C10.7563 2 12.5063 3.03761 13.7754 4.30664C15.0445 5.57572 16.0819 7.32574 16.082 9.04102C16.082 10.0378 15.8522 10.8998 15.4033 11.6172C14.9557 12.3324 14.3289 12.8429 13.6318 13.2021C12.5642 13.7523 11.2803 13.9699 10.041 14.0391V15.083C10.0407 15.635 9.59312 16.083 9.04102 16.083C8.48903 16.0829 8.04131 15.635 8.04102 15.083V14.0381C6.79991 13.9673 5.51566 13.746 4.44824 13.1934C3.75223 12.8329 3.12682 12.3217 2.67969 11.6084C2.23103 10.8925 2.00001 10.0337 2 9.04102C2.0001 7.32574 3.03757 5.57572 4.30664 4.30664C5.57573 3.03755 7.32573 2.0001 9.04102 2ZM9.04102 4C8.07141 4.00011 6.80085 4.64056 5.7207 5.7207C4.64058 6.80084 4.00011 8.07142 4 9.04102C4.00001 9.71583 4.15344 10.195 4.37402 10.5469C4.59611 10.9011 4.92491 11.1885 5.36816 11.418C6.07038 11.7815 7.00019 11.9677 8.04102 12.0361V10.126L6.32031 8.40625C5.92979 8.01573 5.92979 7.38174 6.32031 6.99121C6.71078 6.60101 7.34391 6.60101 7.73438 6.99121L8.04102 7.29785V6.35645C8.04102 5.80424 8.48884 5.35658 9.04102 5.35645C9.5933 5.35645 10.041 5.80416 10.041 6.35645V8.64062L10.3477 8.33398C10.7381 7.94353 11.3712 7.94367 11.7617 8.33398C12.1522 8.72451 12.1522 9.35752 11.7617 9.74805L10.041 11.4688V12.0361C11.0837 11.9691 12.0138 11.7866 12.7158 11.4248C13.1582 11.1968 13.4863 10.9101 13.708 10.5557C13.9283 10.2033 14.082 9.72207 14.082 9.04102C14.0819 8.07142 13.4415 6.80084 12.3613 5.7207C11.2811 4.64062 10.0106 4 9.04102 4Z" fill="#1A222E"/>
</svg>
