<svg width="18" height="18" viewBox="0 0 18 18" fill="none" xmlns="http://www.w3.org/2000/svg">
<path d="M13 6V4C13 2.89543 12.1046 2 11 2H5C3.89543 2 3 2.89543 3 4V14C3 15.1046 3.89543 16 5 16H9" stroke="#1A222E" stroke-width="2"/>
<path d="M7 1.5C7 1.77614 7.22386 2 7.5 2H8.5C8.77614 2 9 1.77614 9 1.5C9 1.22386 8.77614 1 8.5 1H7.5C7.22386 1 7 1.22386 7 1.5Z" stroke="#1A222E" stroke-width="2"/>
<path d="M14 10H12" stroke="#1A222E" stroke-width="2" stroke-linecap="round"/>
<path d="M14 13H12" stroke="#1A222E" stroke-width="2" stroke-linecap="round"/>
<path d="M9 8C9 6.89543 9.89543 6 11 6H15C16.1046 6 17 6.89543 17 8V15C17 16.1046 16.1046 17 15 17H11C9.89543 17 9 16.1046 9 15V8Z" stroke="#1A222E" stroke-width="2"/>
</svg>
