<svg width="18" height="18" viewBox="0 0 18 18" fill="none" xmlns="http://www.w3.org/2000/svg">
<path d="M5 7L3 7C1.89543 7 1 6.10457 1 5L1 3C1 1.89543 1.89543 1 3 1L5 1C6.10457 1 7 1.89543 7 3L7 5C7 6.10457 6.10457 7 5 7Z" stroke="#1A222E" stroke-width="2"/>
<path d="M13 6L15 8L17 6" stroke="#1A222E" stroke-width="2" stroke-linecap="round" stroke-linejoin="round"/>
<path d="M15 7L15 6C15 3.79086 13.2091 2 11 2L10 2" stroke="#1A222E" stroke-width="2" stroke-linecap="round" stroke-linejoin="round"/>
<path d="M5 12L3 10L1 12" stroke="#1A222E" stroke-width="2" stroke-linecap="round" stroke-linejoin="round"/>
<path d="M3 11L3 12C3 14.2091 4.79086 16 7 16L8 16" stroke="#1A222E" stroke-width="2" stroke-linecap="round" stroke-linejoin="round"/>
<path d="M15 17L13 17C11.8954 17 11 16.1046 11 15L11 13C11 11.8954 11.8954 11 13 11L15 11C16.1046 11 17 11.8954 17 13L17 15C17 16.1046 16.1046 17 15 17Z" stroke="#1A222E" stroke-width="2"/>
</svg>
