<svg width="18" height="18" viewBox="0 0 18 18" fill="none" xmlns="http://www.w3.org/2000/svg">
<path fill-rule="evenodd" clip-rule="evenodd" d="M11.7425 10.0299C12.2783 10.1638 12.6041 10.7067 12.4701 11.2425C12.0728 12.8319 10.8319 14.0728 9.24254 14.4701C8.70674 14.6041 8.16381 14.2783 8.02986 13.7425C7.89591 13.2067 8.22167 12.6638 8.75746 12.5299C9.63022 12.3117 10.3117 11.6302 10.5299 10.7575C10.6638 10.2217 11.2067 9.89591 11.7425 10.0299ZM9 16C11.7614 16 14 13.7614 14 11C14 9.71253 13.3087 8.1418 12.0072 6.35114C11.1272 5.14041 10.0682 3.96151 9 2.85087C7.93182 3.96151 6.87281 5.14041 5.99281 6.35114C4.69128 8.1418 4 9.71253 4 11C4 13.7614 6.23858 16 9 16ZM7.59644 1.42486C4.88791 4.23669 2 7.71509 2 11C2 14.866 5.13401 18 9 18C12.866 18 16 14.866 16 11C16 7.71509 13.1121 4.23669 10.4036 1.42486C9.92689 0.930006 9.45576 0.455795 9.00692 0.00691763C9.00461 0.00461108 9.00231 0.00230521 9 0C8.54908 0.450922 8.07556 0.927463 7.59644 1.42486Z" fill="#1A222E"/>
</svg>
