<svg width="18" height="18" viewBox="0 0 18 18" fill="none" xmlns="http://www.w3.org/2000/svg">
<circle cx="9" cy="9" r="8" stroke="#1A222E" stroke-width="2"/>
<path d="M9 1V17" stroke="#1A222E" stroke-width="2"/>
<path d="M8 16C7.08075 16 6.17049 15.8189 5.32121 15.4672C4.47193 15.1154 3.70026 14.5998 3.05025 13.9497C2.40024 13.2997 1.88462 12.5281 1.53284 11.6788C1.18106 10.8295 0.999998 9.91924 1 8.99998C1 8.08073 1.18106 7.17048 1.53285 6.3212C1.88464 5.47192 2.40026 4.70025 3.05027 4.05024C3.70028 3.40023 4.47196 2.88461 5.32124 2.53283C6.17052 2.18105 7.08078 2 8.00003 2L8 9L8 16Z" fill="#1A222E" stroke="#1A222E" stroke-width="2"/>
<rect width="3.96899" height="1.99987" rx="0.999936" transform="matrix(1 0 -0.0147647 0.999891 9.03125 4)" fill="#1A222E"/>
<rect width="3.96899" height="1.99984" rx="0.999921" transform="matrix(1 0 -0.0147647 0.999891 9.03125 8)" fill="#1A222E"/>
<rect width="3.96899" height="1.99984" rx="0.999921" transform="matrix(1 0 -0.0147647 0.999891 9.03125 12)" fill="#1A222E"/>
</svg>
