<svg width="18" height="18" viewBox="0 0 18 18" fill="none" xmlns="http://www.w3.org/2000/svg">
<path d="M6.06631 7.96544L5.56669 9.13693C5.5315 9.21943 5.46822 9.2868 5.38807 9.32707L4.30369 9.87192C3.01347 10.5202 2.45877 12.0667 3.04281 13.3872C3.47642 14.3676 4.44754 15 5.51956 15H13.4772C14.7879 15 15.9898 14.2713 16.596 13.1092C17.7472 10.902 16.3043 8.23029 13.8274 7.98247L13.6066 7.96039C13.4871 7.94843 13.382 7.8756 13.3285 7.76809C11.8096 4.71542 7.4039 4.8291 6.06631 7.96544Z" stroke="#1A222E" stroke-width="2"/>
<path d="M8 6.16766C7.9347 5.51059 7.68609 4.88524 7.28264 4.36318C6.87919 3.84112 6.3372 3.44347 5.71872 3.21573C5.10024 2.988 4.43026 2.9394 3.7855 3.07549C3.14074 3.21158 2.54725 3.52687 2.07297 3.98525C1.59869 4.44363 1.2628 5.02658 1.10375 5.66737C0.944702 6.30816 0.968919 6.98087 1.17363 7.60851C1.37835 8.23614 1.75528 8.79333 2.26128 9.21627C2.76729 9.63921 3.38191 9.91082 4.03478 10" stroke="#1A222E" stroke-width="2"/>
</svg>
