<svg width="18" height="18" viewBox="0 0 18 18" fill="none" xmlns="http://www.w3.org/2000/svg">
<path d="M9 1C11.0795 1 13 2.50171 13 4.625V9.66113C13.4376 10.1971 13.7498 10.8208 13.8994 11.4951C14.1018 12.4077 13.9966 13.3526 13.6035 14.2041C13.2112 15.0537 12.5552 15.7621 11.7363 16.2529C10.9181 16.7433 9.96621 17 9 17C8.03379 17 7.08186 16.7433 6.26367 16.2529C5.44482 15.7621 4.7888 15.0537 4.39648 14.2041C4.00335 13.3526 3.89822 12.4077 4.10059 11.4951C4.25021 10.8208 4.5624 10.1971 5 9.66113V4.625C5 2.50171 6.92047 1 9 1Z" stroke="#1A222E" stroke-width="2"/>
<circle cx="9" cy="12" r="2" fill="#1A222E"/>
<rect x="8" y="4" width="2" height="8" rx="1" fill="#1A222E"/>
</svg>
