<svg width="18" height="18" viewBox="0 0 18 18" fill="none" xmlns="http://www.w3.org/2000/svg">
<path d="M15.6667 8.59688C15.6667 7.32882 15.3306 6.17153 14.6583 5.125C13.9861 4.07847 13.0847 3.29549 11.9542 2.77604C11.725 2.6691 11.5569 2.50486 11.45 2.28333C11.3431 2.06181 11.3278 1.83646 11.4042 1.60729C11.4958 1.36285 11.6601 1.18715 11.8969 1.08021C12.1337 0.973264 12.3743 0.973264 12.6188 1.08021C14.1007 1.73715 15.2847 2.74167 16.1708 4.09375C17.0569 5.44583 17.5 6.94688 17.5 8.59688C17.5 10.2469 17.0569 11.7479 16.1708 13.1C15.2847 14.4521 14.1007 15.4566 12.6188 16.1135C12.3743 16.2205 12.1337 16.2205 11.8969 16.1135C11.6601 16.0066 11.4958 15.8309 11.4042 15.5865C11.3278 15.3573 11.3431 15.1319 11.45 14.9104C11.5569 14.6889 11.725 14.5247 11.9542 14.4177C13.0847 13.8983 13.9861 13.1153 14.6583 12.0687C15.3306 11.0222 15.6667 9.86493 15.6667 8.59688ZM4.66667 11.3698H1.91667C1.65694 11.3698 1.43924 11.2819 1.26354 11.1062C1.08785 10.9306 1 10.7128 1 10.4531V6.78646C1 6.52674 1.08785 6.30903 1.26354 6.13333C1.43924 5.95764 1.65694 5.86979 1.91667 5.86979H4.66667L7.69167 2.84479C7.98194 2.55451 8.31424 2.48958 8.68854 2.65C9.06285 2.81042 9.25 3.09687 9.25 3.50937V13.7302C9.25 14.1427 9.06285 14.4292 8.68854 14.5896C8.31424 14.75 7.98194 14.6851 7.69167 14.3948L4.66667 11.3698ZM13.375 8.61979C13.375 9.26146 13.2299 9.86875 12.9396 10.4417C12.6493 11.0146 12.2674 11.4844 11.7938 11.851C11.641 11.9427 11.4844 11.9465 11.324 11.8625C11.1635 11.7785 11.0833 11.6448 11.0833 11.4615V5.73229C11.0833 5.54896 11.1635 5.41528 11.324 5.33125C11.4844 5.24722 11.641 5.25104 11.7938 5.34271C12.2674 5.72465 12.6493 6.2059 12.9396 6.78646C13.2299 7.36701 13.375 7.97812 13.375 8.61979ZM7.41667 5.73229L5.44583 7.70312H2.83333V9.53646H5.44583L7.41667 11.5073V5.73229Z" fill="#1A222E"/>
</svg>
