<svg width="18" height="19" viewBox="0 0 18 19" fill="none" xmlns="http://www.w3.org/2000/svg">
<path d="M13.7042 15.6374C13.5361 15.7443 13.3681 15.8437 13.2 15.9353C13.0319 16.027 12.8562 16.111 12.6729 16.1874C12.4438 16.2943 12.2108 16.2943 11.974 16.1874C11.7372 16.0805 11.5729 15.9048 11.4813 15.6603C11.3896 15.4312 11.401 15.2058 11.5156 14.9843C11.6302 14.7627 11.8021 14.5985 12.0312 14.4916C12.0924 14.461 12.1497 14.4305 12.2031 14.3999C12.2566 14.3693 12.3139 14.3388 12.375 14.3082L9.32708 11.2603V13.8041C9.32708 14.2166 9.13993 14.503 8.76563 14.6634C8.39132 14.8239 8.05903 14.7589 7.76875 14.4687L4.74375 11.4437H1.99375C1.73403 11.4437 1.51632 11.3558 1.34063 11.1801C1.16493 11.0044 1.07708 10.7867 1.07708 10.527V6.86032C1.07708 6.6006 1.16493 6.38289 1.34063 6.20719C1.51632 6.0315 1.73403 5.94365 1.99375 5.94365H4.01042L0.252083 2.18532C0.0840278 2.01726 0 1.80337 0 1.54365C0 1.28393 0.0840278 1.07004 0.252083 0.901986C0.420139 0.73393 0.634028 0.649902 0.89375 0.649902C1.15347 0.649902 1.36736 0.73393 1.53542 0.901986L17.1187 16.4853C17.2868 16.6534 17.3708 16.8673 17.3708 17.127C17.3708 17.3867 17.2868 17.6006 17.1187 17.7687C16.9507 17.9367 16.7368 18.0207 16.4771 18.0207C16.2174 18.0207 16.0035 17.9367 15.8354 17.7687L13.7042 15.6374ZM15.7438 8.67074C15.7438 7.40268 15.4076 6.24539 14.7354 5.19886C14.0632 4.15233 13.1618 3.36935 12.0312 2.8499C11.8021 2.74296 11.634 2.57872 11.5271 2.35719C11.4201 2.13567 11.4049 1.91032 11.4813 1.68115C11.5729 1.43671 11.7372 1.26101 11.974 1.15407C12.2108 1.04712 12.4514 1.04712 12.6958 1.15407C14.1778 1.81101 15.3618 2.81171 16.2479 4.15615C17.134 5.5006 17.5771 7.00546 17.5771 8.67074C17.5771 9.1749 17.5312 9.67525 17.4396 10.1718C17.3479 10.6683 17.2181 11.1457 17.05 11.6041C16.9278 11.9402 16.7406 12.1502 16.4885 12.2343C16.2365 12.3183 16.0035 12.3221 15.7896 12.2457C15.5757 12.1693 15.4038 12.0318 15.274 11.8332C15.1441 11.6346 15.1403 11.4055 15.2625 11.1457C15.4306 10.7485 15.5528 10.3475 15.6292 9.94261C15.7056 9.53775 15.7438 9.11379 15.7438 8.67074ZM11.8708 5.41657C12.375 5.7374 12.7646 6.21865 13.0396 6.86032C13.3146 7.50199 13.4521 8.1131 13.4521 8.69365V8.92282C13.4521 8.99921 13.4444 9.0756 13.4292 9.15199C13.3986 9.3506 13.2917 9.48046 13.1083 9.54157C12.925 9.60268 12.7569 9.55685 12.6042 9.40407L11.4354 8.23532C11.3438 8.14365 11.275 8.04053 11.2292 7.92594C11.1833 7.81136 11.1604 7.69296 11.1604 7.57074V5.80615C11.1604 5.62282 11.2406 5.48914 11.401 5.40511C11.5615 5.32108 11.7181 5.3249 11.8708 5.41657ZM7.26458 4.06449C7.17292 3.97282 7.12708 3.86587 7.12708 3.74365C7.12708 3.62143 7.17292 3.51449 7.26458 3.42282L7.76875 2.91865C8.05903 2.62837 8.39132 2.56344 8.76563 2.72386C9.13993 2.88428 9.32708 3.17074 9.32708 3.58324V5.02699C9.32708 5.24087 9.23542 5.38601 9.05208 5.4624C8.86875 5.53879 8.7007 5.5006 8.54792 5.34782L7.26458 4.06449ZM7.49375 11.5812V9.42699L5.84375 7.77699H2.91042V9.61032H5.52292L7.49375 11.5812Z" fill="#1A222E"/>
</svg>
