<svg width="18" height="18" viewBox="0 0 18 18" fill="none" xmlns="http://www.w3.org/2000/svg">
<path d="M1 5C1 3.89543 1.89543 3 3 3H11C12.1046 3 13 3.89543 13 5V13C13 14.1046 12.1046 15 11 15H3C1.89543 15 1 14.1046 1 13V5Z" stroke="#1A222E" stroke-width="2"/>
<path d="M1 5C1 3.89543 1.89543 3 3 3H15C16.1046 3 17 3.89543 17 5V13C17 14.1046 16.1046 15 15 15H3C1.89543 15 1 14.1046 1 13V5Z" stroke="#1A222E" stroke-width="2"/>
<path d="M13 7H11C9.89543 7 9 7.89543 9 9C9 10.1046 9.89543 11 11 11L13 11" stroke="#1A222E" stroke-width="2" stroke-linecap="round" stroke-linejoin="round"/>
</svg>
