<svg preserveAspectRatio="none" width="100%" height="100%" overflow="visible" style="display: block;" viewBox="0 0 91 12" fill="none" xmlns="http://www.w3.org/2000/svg">
<g id="Wordmark">
<path id="Vector" d="M16.9178 11.5922V0.402976C16.9178 0.299216 17.0019 0.21476 17.1051 0.21476H20.6347C21.5327 0.21476 22.2674 0.364368 22.8388 0.66117C23.4079 0.957973 23.8305 1.36578 24.1042 1.88458C24.3779 2.40338 24.5148 2.97527 24.5148 3.60265C24.5148 4.32898 24.3203 4.98532 23.9313 5.56927C23.5423 6.15323 22.9373 6.56586 22.1137 6.80957L24.546 11.6212C24.5844 11.696 24.5292 11.7852 24.4451 11.7852H23.163C23.0621 11.7852 22.9733 11.7273 22.9277 11.638L20.6635 7.00985H20.565H18.296V11.597C18.296 11.7008 18.212 11.7852 18.1088 11.7852H17.1003C16.9995 11.7804 16.9178 11.696 16.9178 11.5922ZM18.2984 5.91675H20.5338C21.4222 5.91675 22.0681 5.70199 22.4739 5.27247C22.8797 4.84295 23.0813 4.29278 23.0813 3.61955C23.0813 2.93666 22.8821 2.39373 22.4811 1.99075C22.0801 1.58777 21.427 1.38749 20.517 1.38749H18.296V5.91675H18.2984V5.91675Z" fill="var(--fill-0, #1A222E)"/>
<path id="Vector_2" d="M25.8161 11.6043L29.9364 0.361955C29.97 0.272672 30.054 0.21476 30.1477 0.21476H31.2978C31.3914 0.21476 31.4754 0.272672 31.509 0.361955L35.6173 11.6043C35.6485 11.6911 35.586 11.7804 35.4948 11.7804H34.4023C34.2919 11.7804 34.1934 11.7104 34.155 11.6067L33.1634 8.80756H28.2628L27.2568 11.6091C27.2184 11.7128 27.1199 11.7828 27.0119 11.7828H25.9362C25.8474 11.7804 25.7849 11.6887 25.8161 11.6043ZM28.6782 7.68309H32.7552L30.7167 1.96421L28.6782 7.68309Z" fill="var(--fill-0, #1A222E)"/>
<path id="Vector_3" d="M37.2476 11.5922V0.402976C37.2476 0.299216 37.3316 0.21476 37.4349 0.21476H44.0666C44.1698 0.21476 44.2539 0.299216 44.2539 0.402976V1.16791C44.2539 1.27167 44.1698 1.35612 44.0666 1.35612H38.6306V5.3883H43.2286C43.3318 5.3883 43.4159 5.47275 43.4159 5.57651V6.32455C43.4159 6.42831 43.3318 6.51277 43.2286 6.51277H38.6306V11.597C38.6306 11.7008 38.5465 11.7852 38.4433 11.7852H37.4349C37.3316 11.7804 37.2476 11.696 37.2476 11.5922Z" fill="var(--fill-0, #1A222E)"/>
<path id="Vector_4" d="M45.9394 11.5922V0.402976C45.9394 0.299216 46.0234 0.21476 46.1267 0.21476H52.756C52.8592 0.21476 52.9433 0.299216 52.9433 0.402976V1.16791C52.9433 1.27167 52.8592 1.35612 52.756 1.35612H47.32V5.3883H51.918C52.0213 5.3883 52.1053 5.47275 52.1053 5.57651V6.32455C52.1053 6.42831 52.0213 6.51277 51.918 6.51277H47.32V11.597C47.32 11.7008 47.236 11.7852 47.1327 11.7852H46.1243C46.0234 11.7804 45.9394 11.696 45.9394 11.5922Z" fill="var(--fill-0, #1A222E)"/>
<path id="Vector_5" d="M54.6312 11.5922V0.402976C54.6312 0.299216 54.7153 0.21476 54.8185 0.21476H61.5631C61.6663 0.21476 61.7503 0.299216 61.7503 0.402976V1.16791C61.7503 1.27167 61.6663 1.35612 61.5631 1.35612H56.0118V5.3883H61.0708C61.1741 5.3883 61.2581 5.47275 61.2581 5.57651V6.32455C61.2581 6.42831 61.1741 6.51277 61.0708 6.51277H56.0118V10.6415H61.5631C61.6663 10.6415 61.7503 10.7259 61.7503 10.8297V11.5946C61.7503 11.6984 61.6663 11.7828 61.5631 11.7828H54.8185C54.7153 11.7804 54.6312 11.696 54.6312 11.5922Z" fill="var(--fill-0, #1A222E)"/>
<path id="Vector_6" d="M12.4615 11.5946V0.402976C12.4615 0.299216 12.5455 0.21476 12.6488 0.21476H13.6572C13.7604 0.21476 13.8445 0.299216 13.8445 0.402976V11.5922C13.8445 11.696 13.7604 11.7804 13.6572 11.7804H12.6488C12.5431 11.7828 12.4615 11.6984 12.4615 11.5946Z" fill="var(--fill-0, #1A222E)"/>
<path id="Vector_7" d="M5.60166 5.65856V6.37281C5.60166 6.47657 5.6809 6.56103 5.77694 6.56103H8.71823C8.71823 8.76895 7.86106 9.70762 7.32082 10.1154C6.78058 10.5232 6.08908 10.7259 5.24631 10.7259C4.45396 10.7259 3.76726 10.5353 3.179 10.1564C2.59314 9.77519 2.13694 9.23467 1.8128 8.52765C1.48865 7.82304 1.32538 6.97848 1.32538 5.99879C1.32538 5.0191 1.48865 4.17454 1.8128 3.46994C2.13694 2.76533 2.59314 2.2224 3.179 1.84114C3.76485 1.45988 4.45396 1.27167 5.24631 1.27167C6.08908 1.27167 6.78058 1.47677 7.32082 1.88216C7.81544 2.25618 8.14438 2.75085 8.30765 3.36376C8.33406 3.4627 8.4157 3.53509 8.51174 3.53509H9.64264C9.74588 3.53509 9.82272 3.43133 9.79631 3.32516C9.53939 2.32375 9.03517 1.52986 8.27884 0.941082C7.47449 0.313694 6.46364 0 5.24871 0C4.17784 0 3.25103 0.253368 2.46348 0.760105C1.67834 1.26684 1.06847 1.97145 0.643483 2.87633C0.213694 3.78122 0 4.82124 0 6.00121C0 7.18118 0.213694 8.22119 0.638681 9.12367C1.06367 10.0261 1.67354 10.7332 2.45868 11.2399C3.24383 11.7466 4.17303 12 5.24391 12C6.45884 12 7.46728 11.6863 8.27644 11.0589C9.08319 10.4315 10.0412 9.10919 10.0436 6.56344V5.66097C10.0436 5.55721 9.96438 5.47275 9.86834 5.47275H5.77694C5.6809 5.47275 5.60166 5.5548 5.60166 5.65856Z" fill="var(--fill-0, #1A222E)"/>
<g id="Group">
<path id="Vector_8" d="M64.6748 8.36598H65.885C66.1059 8.36598 66.2931 8.52282 66.3412 8.74241C66.5116 9.52182 67.1767 10.0382 68.226 10.0382C69.4337 10.0382 70.118 9.3336 70.118 8.36598C70.118 7.29218 69.4697 6.62377 68.0507 6.62377H67.1287C66.9222 6.62377 66.7541 6.45486 66.7541 6.24734V5.11562C66.7541 4.9081 66.9222 4.73919 67.1287 4.73919H68.0507C69.2416 4.73919 69.7315 4.23004 69.7315 3.34929C69.7315 2.5747 69.2056 1.97627 68.226 1.97627C67.4048 1.97627 66.915 2.38407 66.7565 3.01629C66.7037 3.2214 66.5188 3.36618 66.3051 3.36618H65.071C64.8501 3.36618 64.6748 3.17313 64.6988 2.95355C64.9125 1.0376 66.2955 0.0217173 68.262 0.0217173C70.3989 0.0217173 71.8348 1.27167 71.8348 3.19003C71.8348 4.37 71.3282 5.19525 70.3821 5.65373V5.68993C71.5731 6.1484 72.2382 7.07983 72.2382 8.48904C72.2382 10.6366 70.5742 11.9903 68.2644 11.9903C66.0915 11.9903 64.4899 10.8224 64.3075 8.76654C64.2835 8.55178 64.4587 8.36598 64.6748 8.36598Z" fill="var(--fill-0, #1A222E)"/>
<path id="Vector_9" d="M73.3594 8.06435C73.297 6.42107 73.9837 5.30143 74.4399 4.56545L76.8986 0.608084C77.0355 0.388498 77.2756 0.255781 77.5325 0.255781H78.8122C79.0788 0.255781 79.2396 0.552584 79.0956 0.776996L76.9082 4.17937C77.2227 4.02011 77.6093 3.89704 78.1159 3.89704C80.0944 3.89704 81.5134 5.65614 81.5134 7.89061C81.5134 10.3012 79.8591 11.9662 77.4893 11.9903C75.2947 12.0145 73.4411 10.265 73.3594 8.06435ZM79.3933 7.83752C79.3933 6.5176 78.6394 5.67303 77.4316 5.67303C76.2239 5.67303 75.47 6.5176 75.47 7.83752C75.47 9.21054 76.2239 10.0382 77.4316 10.0382C78.6418 10.0382 79.3933 9.21054 79.3933 7.83752Z" fill="var(--fill-0, #1A222E)"/>
<path id="Vector_10" d="M82.8436 7.87372V4.14559C82.8436 1.64569 84.5243 0.0265433 86.923 0.0265433C89.3193 0.0265433 91 1.64569 91 4.14559V7.87613C91 10.376 89.3193 11.9952 86.9206 11.9952C84.5244 11.9928 82.8436 10.3736 82.8436 7.87372ZM88.9183 7.87372V4.14559C88.9183 2.78946 88.1643 1.9811 86.923 1.9811C85.6793 1.9811 84.9277 2.78946 84.9277 4.14559V7.87613C84.9277 9.23225 85.6817 10.0406 86.923 10.0406C88.1643 10.0382 88.9183 9.22984 88.9183 7.87372Z" fill="var(--fill-0, #1A222E)"/>
</g>
</g>
</svg>
