<svg width="8" height="8" viewBox="0 0 8 8" fill="none" xmlns="http://www.w3.org/2000/svg">
<path d="M4.35998 7.21119L5.63326 7.90717C5.76136 7.97693 5.90565 8.00803 6.04984 7.99693C6.19402 7.98583 6.33235 7.93299 6.4492 7.84437C6.56605 7.75575 6.65677 7.63489 6.7111 7.49543C6.76543 7.35598 6.78121 7.20349 6.75666 7.05518L6.51401 5.58106C6.49266 5.45207 6.5018 5.3196 6.54066 5.19511C6.57951 5.07061 6.6469 4.95784 6.73701 4.86653L7.76583 3.82257C7.86943 3.71748 7.94272 3.5843 7.9774 3.43812C8.01208 3.29193 8.00676 3.13856 7.96206 2.99535C7.91736 2.85214 7.83505 2.72481 7.72445 2.62775C7.61384 2.53069 7.47935 2.46779 7.33619 2.44614L5.91411 2.23106C5.79003 2.21192 5.67225 2.16175 5.57088 2.08485C5.4695 2.00796 5.38755 1.90663 5.33204 1.78955L4.6943 0.449849C4.63029 0.314819 4.53125 0.201127 4.40839 0.121629C4.28553 0.0421312 4.14375 0 3.99909 0C3.85443 0 3.71265 0.0421312 3.58979 0.121629C3.46693 0.201127 3.36789 0.314819 3.30388 0.449849L2.66796 1.79182C2.61245 1.9089 2.5305 2.01023 2.42912 2.08713C2.32775 2.16402 2.20997 2.21419 2.08589 2.23334L0.663814 2.44841C0.520649 2.47006 0.386159 2.53297 0.275554 2.63002C0.164948 2.72708 0.0826401 2.85441 0.0379384 2.99762C-0.00676325 3.14083 -0.0120752 3.2942 0.0226034 3.44039C0.057282 3.58658 0.130567 3.71975 0.234172 3.82484L1.26299 4.86881C1.3531 4.96011 1.42049 5.07289 1.45934 5.19738C1.4982 5.32187 1.50735 5.45434 1.48599 5.58334L1.24152 7.05518C1.21678 7.20369 1.23249 7.35644 1.28687 7.49612C1.34125 7.63581 1.43213 7.75685 1.54922 7.84554C1.6663 7.93422 1.80491 7.987 1.94934 7.99789C2.09376 8.00878 2.23823 7.97736 2.36638 7.90717L3.63966 7.21119C3.7508 7.15065 3.87438 7.11902 3.99982 7.11902C4.12526 7.11902 4.24884 7.15065 4.35998 7.21119Z" fill="#485363"/>
</svg>
