<svg preserveAspectRatio="none" width="100%" height="100%" overflow="visible" style="display: block;" viewBox="0 0 14.7258 49.896" fill="none" xmlns="http://www.w3.org/2000/svg">
<path id="Vector" d="M8.78318 2.16776C6.50329 3.88703 4.82141 6.20429 3.55065 8.70843C2.01826 11.7732 1.00913 15.137 0.485878 18.4634C0.149501 20.6685 0 22.7989 0 24.9667C0 27.0971 0.149501 29.2648 0.485878 31.4326C1.00913 34.759 1.98089 38.1601 3.55065 41.1875C4.82141 43.6917 6.54067 46.0837 8.78318 47.7282C10.5024 48.9616 12.5955 49.8212 14.7258 49.896V49.8212C12.6328 48.4009 10.9136 46.4201 9.53069 44.327C6.31642 39.543 4.74666 33.862 4.3729 28.1436C4.29815 27.0971 4.26078 25.9758 4.26078 24.9293C4.26078 23.8828 4.29815 22.7615 4.3729 21.715C4.74666 15.9966 6.31642 10.2782 9.53069 5.53154C10.8762 3.4759 12.6328 1.49501 14.7258 0.0747505V0C12.5955 0.0373752 10.4651 0.859631 8.78318 2.16776Z" fill="var(--fill-0, #1A222E)"/>
</svg>
