<svg preserveAspectRatio="none" width="100%" height="100%" overflow="visible" style="display: block;" viewBox="0 0 14.7632 42.1967" fill="none" xmlns="http://www.w3.org/2000/svg">
<path id="Vector" d="M10.8388 0.934381C10.2408 1.19601 9.68019 1.53239 9.11956 1.90614C9.00744 1.98089 8.89531 2.05564 8.78318 2.13039C8.1478 2.61627 7.51242 3.1769 6.91442 3.81228C6.16692 4.59716 5.49416 5.49416 4.85878 6.42854C4.3729 7.13867 3.96178 7.92355 3.55065 8.70843C2.01826 11.7732 1.00913 15.137 0.485879 18.4634C0.149502 20.6311 0 22.7989 0 24.9293C0 27.0597 0.149502 29.2274 0.485879 31.3952C1.00913 34.7216 1.98089 38.1228 3.55065 41.1501C3.73752 41.4865 3.9244 41.8603 4.11128 42.1967C4.93353 40.7016 5.60629 39.0945 6.16692 37.4126C5.15778 34.4226 4.55978 31.2457 4.33553 28.1062C4.26078 27.0597 4.2234 25.9384 4.2234 24.8919C4.2234 23.8454 4.26078 22.7242 4.33553 21.6776C4.59716 17.828 5.38204 13.9783 6.87705 10.3903C7.47505 9.04481 8.1478 7.66193 8.97006 6.39117C9.15694 6.09217 9.30644 5.79316 9.53069 5.49416C9.94182 4.89616 10.3529 4.33553 10.8014 3.73752C11.3247 3.10215 11.8853 2.46677 12.5207 1.86876C13.1561 1.23338 13.8288 0.672754 14.5763 0.149501C14.6511 0.112126 14.6885 0.0747505 14.7632 0.0373752V0C13.4177 0.0373752 12.1096 0.373752 10.8388 0.934381Z" fill="var(--fill-0, #1A222E)"/>
</svg>
