<svg preserveAspectRatio="none" width="100%" height="100%" overflow="visible" style="display: block;" viewBox="0 0 14.7258 47.3171" fill="none" xmlns="http://www.w3.org/2000/svg">
<path id="Vector" d="M10.8388 0.934381C10.2408 1.19601 9.68019 1.53239 9.11956 1.90614C9.00744 1.98089 8.89531 2.05564 8.78318 2.13039C6.54067 3.84965 4.85878 6.16692 3.55065 8.67106C2.01826 11.7358 1.00913 15.0996 0.485879 18.426C0.149501 20.6311 0 22.7615 0 24.9293C0 27.0597 0.149501 29.2274 0.485879 31.3952C1.00913 34.7216 1.98089 38.1228 3.55065 41.1502C4.70928 43.4674 6.27904 45.6352 8.29731 47.3171C8.93269 46.6443 9.53069 45.8968 10.0913 45.1119C9.90444 44.8503 9.71757 44.5887 9.53069 44.327C6.31642 39.543 4.74666 33.862 4.3729 28.1436C4.29815 27.0971 4.26078 25.9758 4.26078 24.9293C4.26078 23.8828 4.29815 22.7615 4.3729 21.715C4.74666 15.9966 6.31642 10.2782 9.53069 5.53154C9.94182 4.93353 10.3529 4.3729 10.8014 3.7749C11.3247 3.13952 11.8853 2.50414 12.5207 1.90614C13.1561 1.30813 13.8288 0.747505 14.539 0.261627C14.6137 0.224251 14.6511 0.186876 14.7258 0.149501V0C13.4177 0.0373753 12.0722 0.373753 10.8388 0.934381Z" fill="var(--fill-0, #1A222E)"/>
</svg>
