<svg preserveAspectRatio="none" width="100%" height="100%" overflow="visible" style="display: block;" viewBox="0 0 21.1544 29.9002" fill="none" xmlns="http://www.w3.org/2000/svg">
<path id="Vector" d="M12.6702 0H0V1.08388V1.15863C1.30813 1.27076 1.75664 1.49501 2.20514 1.90614C2.80315 2.42939 2.91527 3.25165 2.91527 4.70928C2.91527 5.15778 2.91527 5.60629 2.91527 6.16692V23.7333C2.91527 24.2565 2.91527 24.7424 2.91527 25.1909C2.8779 26.6112 2.80315 27.5082 2.20514 27.9941C1.71926 28.4052 1.34551 28.5921 0 28.7416V28.8163V29.9002H12.6702H12.7076H19.1361L21.1544 24.0323H19.6968C18.2391 27.2466 15.9592 27.6203 13.8662 27.6203C12.147 27.6203 11.0257 27.5082 10.2408 27.0223C9.60544 26.6112 9.38119 25.5273 9.34381 23.6585V6.24167V5.90529C9.34381 3.70015 9.34381 2.50414 10.0913 1.86876C10.5772 1.45763 11.3621 1.30813 12.7076 1.19601V0H12.6702Z" fill="var(--fill-0, #1A222E)"/>
</svg>
