<svg preserveAspectRatio="none" width="100%" height="100%" overflow="visible" style="display: block;" viewBox="0 0 14.7632 49.9333" fill="none" xmlns="http://www.w3.org/2000/svg">
<path id="Vector" d="M5.98004 47.7282C8.25993 46.0089 9.94182 43.6917 11.2126 41.1875C12.745 38.1228 13.7541 34.759 14.2773 31.4326C14.6137 29.2648 14.7632 27.0971 14.7632 24.9667C14.7632 22.8363 14.6137 20.6685 14.2773 18.5007C13.7541 15.1744 12.7823 11.7732 11.2126 8.74581C9.94182 6.24167 8.22255 3.84965 5.98004 2.20514C4.26078 0.859631 2.13039 0.0373752 0.0373747 0V0.0747505C2.09301 1.49501 3.84965 3.4759 5.19516 5.56891C8.40943 10.3529 9.97919 16.034 10.3529 21.7524C10.4277 22.7989 10.4651 23.9202 10.4651 24.9667C10.4651 26.0132 10.4277 27.1344 10.3529 28.1809C9.97919 33.8994 8.40943 39.6178 5.19516 44.3644C3.81228 46.4201 2.05564 48.4009 0 49.8586V49.9333C2.13039 49.8586 4.26078 49.0363 5.98004 47.7282Z" fill="var(--fill-0, #1A222E)"/>
</svg>
