<svg preserveAspectRatio="none" width="100%" height="100%" overflow="visible" style="display: block;" viewBox="0 0 14.7632 47.3171" fill="none" xmlns="http://www.w3.org/2000/svg">
<path id="Vector" d="M3.9244 46.3453C4.5224 46.0837 5.08303 45.7473 5.64366 45.3735C5.75579 45.2988 5.86791 45.2241 5.98004 45.1493C8.25993 43.43 9.94182 41.1128 11.2126 38.6086C12.745 35.5439 13.7541 32.1801 14.2773 28.8537C14.6137 26.6859 14.7632 24.5182 14.7632 22.3878C14.7632 20.2574 14.6137 18.0896 14.2773 15.9219C13.7541 12.5955 12.7823 9.19431 11.2126 6.16692C10.0539 3.84965 8.48418 1.68189 6.46592 0C5.83054 0.672754 5.23253 1.42026 4.67191 2.20514C4.85878 2.46677 5.04566 2.72839 5.23253 2.99002C8.44681 7.77405 10.0166 13.4551 10.3903 19.1735C10.4651 20.22 10.5024 21.3413 10.5024 22.3878C10.5024 23.4343 10.4651 24.5555 10.3903 25.602C10.0166 31.3205 8.44681 37.0389 5.23253 41.7855C4.82141 42.3835 4.41028 42.9442 3.96178 43.5422C3.43852 44.1775 2.87789 44.8129 2.24251 45.4109C1.60714 46.0463 0.934381 46.6069 0.186876 47.1302C0.112126 47.1676 0.0747505 47.2049 0 47.2423V47.3171C1.38288 47.2423 2.72839 46.9059 3.9244 46.3453Z" fill="var(--fill-0, #1A222E)"/>
</svg>
