<svg preserveAspectRatio="none" width="100%" height="100%" overflow="visible" style="display: block;" viewBox="0 0 19.024 30.7225" fill="none" xmlns="http://www.w3.org/2000/svg">
<path id="Vector" d="M19.024 0H9.38119H6.35379V1.15863C6.9518 1.23338 7.43767 1.27076 7.8488 1.38288C8.33468 1.49501 8.67106 1.64451 8.93268 1.86876C9.68019 2.50414 9.68019 3.73752 9.68019 5.90529V20.5938C9.68019 23.5838 9.94182 27.8072 5.71841 27.7324C3.88703 27.6951 2.05564 26.4243 1.45763 24.0697H0C0.598004 28.0314 2.72839 30.7225 7.8488 30.7225C12.1843 30.7225 16.0714 28.7042 16.0714 21.9393V10.5398V5.90529C16.0714 3.70015 16.0714 2.57889 16.8189 1.90614C17.3047 1.49501 17.6785 1.30813 19.024 1.15863V0.0373747V0Z" fill="var(--fill-0, #1A222E)"/>
</svg>
