<svg preserveAspectRatio="none" width="100%" height="100%" overflow="visible" style="display: block;" viewBox="0 0 3.88703 1.83138" fill="none" xmlns="http://www.w3.org/2000/svg">
<path id="Vector" d="M3.1769 1.79401C3.40115 1.75663 3.58802 1.71926 3.81228 1.71926C3.58802 1.56976 3.40115 1.42026 3.1769 1.27076C2.65364 0.859628 2.16777 0.448503 1.71926 0C1.19601 0.373752 0.635379 0.672751 0 0.971753C0.78488 1.34551 1.68189 1.60713 2.54152 1.75664C2.76577 1.71926 2.95265 1.75663 3.1769 1.79401ZM3.88703 1.83138V1.75664C3.84965 1.71926 3.81228 1.71926 3.7749 1.68189C3.55065 1.71926 3.36377 1.75664 3.13952 1.75664C3.40115 1.83139 3.66278 1.83138 3.88703 1.83138Z" fill="var(--fill-0, #1A222E)"/>
</svg>
