<svg preserveAspectRatio="none" width="100%" height="100%" overflow="visible" style="display: block;" viewBox="0 0 14.7258 42.234" fill="none" xmlns="http://www.w3.org/2000/svg">
<path id="Vector" d="M3.88703 41.2997C4.48503 41.038 5.04566 40.7016 5.60629 40.3279C5.71841 40.2531 5.83054 40.1784 5.94266 40.1036C6.61542 39.6178 7.21342 39.0571 7.81143 38.3844C8.55893 37.5995 9.23169 36.7025 9.86707 35.7681C10.3529 35.058 10.7641 34.2731 11.1752 33.4882C12.7076 30.4235 13.7167 27.0597 14.24 23.7333C14.5763 21.5655 14.7258 19.3978 14.7258 17.2674C14.7258 15.137 14.5763 12.9692 14.24 10.8014C13.7167 7.47505 12.745 4.0739 11.1752 1.04651C10.9883 0.710129 10.8014 0.336377 10.6146 0C9.79232 1.49501 9.11956 3.10215 8.55893 4.78403C9.56806 7.77405 10.1661 10.9509 10.3903 14.0905C10.4651 15.137 10.5024 16.2582 10.5024 17.3047C10.5024 18.3512 10.4651 19.4725 10.3903 20.519C10.1287 24.3687 9.34381 28.2183 7.8488 31.8063C7.28817 33.1892 6.61542 34.5347 5.79316 35.8055C5.60629 36.1045 5.45679 36.4035 5.23254 36.7025C4.82141 37.3005 4.41028 37.8611 3.96178 38.4591C3.43852 39.0945 2.87789 39.7299 2.24252 40.3279C1.60714 40.9633 0.934381 41.5239 0.186876 42.0472C0.112126 42.0845 0.0747505 42.1219 0 42.1593V42.234C1.30813 42.1967 2.69102 41.8603 3.88703 41.2997Z" fill="var(--fill-0, #1A222E)"/>
</svg>
