<svg preserveAspectRatio="none" width="100%" height="100%" overflow="visible" style="display: block;" viewBox="0 0 10.1282 17.0802" fill="none" xmlns="http://www.w3.org/2000/svg">
<path id="Vector" d="M7.584 1.264C7.01682 0.632 6.06072 0.0324104 4.91015 0.0324104C1.21538 0.0324104 0 3.33826 0 6.44964C0 9.35036 1.264 12.2187 4.7481 12.2187C5.7042 12.2187 6.82236 11.6677 7.17887 11.0681V12.0728C7.17887 13.8716 7.03303 14.7305 4.69949 14.7305C3.58133 14.7305 2.26872 14.3253 1.11815 13.7257L0.35651 15.881C1.86359 16.6265 3.28964 17.0802 4.86154 17.0802C6.07692 17.0802 7.79466 16.8857 8.89661 15.9296C10.0634 14.9735 10.112 13.272 10.112 11.6191L10.1282 0L7.81087 0.372718C7.81087 0.340308 7.63261 1.00472 7.584 1.264ZM7.17887 7.34092C7.17887 7.8919 7.13026 8.44287 6.91959 8.89662C6.66031 9.44759 6.15795 9.8041 5.50974 9.8041C3.64615 9.8041 3.43548 8.50769 3.43548 6.04451C3.43548 3.84062 3.84061 2.54421 5.46113 2.54421C6.27138 2.54421 6.87097 2.94933 7.17887 3.28964V7.34092Z" fill="var(--fill-0, #1A222E)"/>
</svg>
