<svg preserveAspectRatio="none" width="100%" height="100%" overflow="visible" style="display: block;" viewBox="0 0 10.663 12.6562" fill="none" xmlns="http://www.w3.org/2000/svg">
<path id="Vector" d="M9.4962 8.16738L9.51241 4.16472C9.51241 2.93313 9.4638 2.56041 9.30175 2.05805C8.848 0.76164 7.48677 0 5.46113 0C4.34298 0 3.33826 0.194462 2.17149 0.696821C1.52329 0.972308 0.891285 1.32882 0.291695 1.68533L1.44226 3.72718C2.86831 2.8359 3.98646 2.47939 4.99118 2.47939C6.15795 2.47939 6.43344 2.99795 6.43344 4.29436V4.7481H5.70421C1.91221 4.7481 0 6.04451 0 8.79938C0 10.9385 1.16677 12.2673 3.40308 12.4779H4.66708C5.3801 12.3969 5.9797 12.1701 6.46585 11.8622C6.72513 11.7163 6.96821 11.457 7.22749 11.1977C7.48677 11.7001 7.97292 12.1701 8.5239 12.4779L8.89662 12.6562L9.05867 12.4779L10.663 10.7602C9.60964 9.96615 9.4962 9.38277 9.4962 8.16738ZM4.71569 10.274C3.90544 10.274 3.35446 9.62585 3.35446 8.71836C3.35446 7.30851 4.06749 6.78995 6.23897 6.78995H6.41723V9.54482C5.94728 10.0472 5.31528 10.274 4.71569 10.274Z" fill="var(--fill-0, #1A222E)"/>
</svg>
