<svg preserveAspectRatio="none" width="100%" height="100%" overflow="visible" style="display: block;" viewBox="0 0 6.25824 11.4702" fill="none" xmlns="http://www.w3.org/2000/svg">
<path id="Vector" d="M5.77753 1.93189C5.07008 1.01777 4.06397 0.800744 3.29238 0.800744C1.95068 0.800744 0.934854 1.72004 0.934854 2.93606C0.934854 5.91553 6.25824 4.4922 6.25824 8.40846C6.25824 10.1279 4.83426 11.4702 3.01316 11.4702C2.09645 11.4702 1.11366 11.2201 0.145118 10.4868V9.47158C1.23545 10.5049 2.09644 10.6688 2.96392 10.6688C4.29331 10.6688 5.3208 9.70092 5.3208 8.4402C5.3208 5.2612 0 6.65213 0 2.96845C0 1.31579 1.43823 0.00518281 3.21269 0C4.11321 0 5.26379 0.368626 5.77753 0.982789V1.93189Z" fill="var(--fill-0, #1A222E)"/>
</svg>
