<svg preserveAspectRatio="none" width="100%" height="100%" overflow="visible" style="display: block;" viewBox="0 0 111.001 20.4198" fill="none" xmlns="http://www.w3.org/2000/svg">
<path id="Vector" d="M15.5579 6.88135V6.73174C15.5579 4.78698 14.9595 3.14144 13.7628 2.0194C12.4164 0.747833 10.3969 0.074632 8.00326 0.074632H0V20.3449H4.56279V13.7627H7.18072L11.0701 20.3449H16.2311L11.7432 12.8652C13.4636 12.0424 15.5579 10.397 15.5579 6.88135ZM10.9951 6.95615C10.9951 8.8261 9.72354 9.94798 7.62926 9.94798H4.56249V4.03895H7.62926C9.7984 4.03895 10.9951 5.01133 10.9951 6.95615ZM79.6604 0L72.0308 20.3452H76.5936L78.1644 16.0068H85.2701L86.8409 20.3452H91.5532L83.9237 0H79.6604ZM83.8492 12.1921H79.5109L81.68 5.98394L83.8492 12.1921ZM104.793 10.0229L110.851 0.149577H105.84L102.249 6.58216L98.734 0.149577H93.4981L99.482 10.0978L93.199 20.4198H98.2104L102.025 13.6132L105.84 20.4198H111.001L104.793 10.0229ZM24.9068 16.4555V12.1172H33.0599V8.22777H24.9068V4.03898H34.1071V0.0746644H20.4189V20.3449H28.9458L31.0402 16.4555H24.9068ZM63.8009 0.0746644L59.2381 6.65679L54.6007 0.0746644H54.5257L49.8883 8.90088V20.3449H54.3012V7.77884L59.0882 13.987V14.0618H59.3127L64.1746 7.77872V20.3448H68.5876V0.0745512L63.8009 0.0746644Z" fill="var(--fill-0, #1A222E)"/>
</svg>
