<svg preserveAspectRatio="none" width="100%" height="100%" overflow="visible" style="display: block;" viewBox="0 0 49.5982 16.6262" fill="none" xmlns="http://www.w3.org/2000/svg">
<path id="Vector" d="M4.80637 16.6262C1.94208 16.6262 0 15.1592 0 12.4349V12.3301H1.57226V12.3996C1.57226 14.1809 2.86429 15.2296 4.82003 15.2296C5.8679 15.2296 7.85882 14.7753 7.85882 13.0982C7.85882 9.85051 0.384272 12.1556 0.384272 7.51016C0.384272 5.16981 2.56413 4.12193 4.72954 4.12193C7.27922 4.12193 9.01152 5.58846 9.01152 7.9641V8.06893H7.44005V7.9641C7.44005 6.42712 6.35701 5.5188 4.61014 5.5188C3.38766 5.5188 1.95563 6.04273 1.95563 7.44049C1.95563 10.4793 9.43018 8.34792 9.43018 13.0286C9.43018 15.5082 7.11099 16.6262 4.80637 16.6262ZM20.2108 16.2771C20.0715 15.9277 19.9723 14.7401 19.9723 14.1818V7.75432C19.9723 5.20464 18.4072 4.12193 15.6822 4.12193C13.1678 4.12193 10.9672 5.23981 10.9672 7.99926V8.1041H12.5394V7.99926C12.5394 6.21723 13.8667 5.51958 15.5086 5.51958C17.4643 5.51958 18.372 6.21723 18.372 7.78949C18.372 9.01141 17.7789 9.15152 16.6606 9.29118L16.0674 9.36163C13.308 9.67557 10.4782 9.99006 10.4782 13.133C10.4782 15.2988 11.9456 16.6261 14.3911 16.6261C16.5213 16.6261 17.883 15.6835 18.477 14.3905C18.477 14.3905 18.477 15.6482 18.6515 16.277H20.2108V16.2771ZM18.372 11.7013C18.372 12.6094 18.0582 13.4481 17.4643 14.0768C16.731 14.8098 15.6824 15.2292 14.4952 15.2292C13.3431 15.2292 12.0503 14.6004 12.0503 13.0986C12.0503 11.2822 14.006 10.8636 16.1018 10.6183L17.2194 10.4789C17.5347 10.4446 18.128 10.3389 18.3721 10.1299V11.7013H18.372ZM30.352 4.47093H30.2127H28.6708L25.4623 14.4751L22.2195 4.47093H20.3982L24.5897 16.2767H26.3013L30.352 4.47093ZM33.0249 1.36371C33.0249 0.739647 32.5117 0.262975 31.925 0.262975C31.3382 0.262975 30.8251 0.739647 30.8251 1.32698C30.8251 1.95059 31.3382 2.42682 31.925 2.42682C32.5117 2.42682 33.0249 1.95059 33.0249 1.32698V1.36371ZM32.763 16.2767V4.47093H32.6582H31.1211V16.2767H32.763ZM36.0108 16.2767V0H35.9066H34.3697V16.2767H36.0108ZM39.2258 16.2767V0H39.1208H37.5838V16.2767H39.2258ZM44.9736 16.6262C47.2799 16.6262 49.5982 15.5082 49.5982 13.0286C49.5982 8.34792 42.0893 10.4793 42.0893 7.44049C42.0893 6.04273 43.5205 5.5188 44.7775 5.5188C46.5242 5.5188 47.6073 6.42701 47.6073 7.9641V8.06893H49.1788V7.9641C49.1788 5.58858 47.4463 4.12193 44.8623 4.12193C42.6961 4.12193 40.517 5.16981 40.517 7.51016C40.517 12.1556 48.0259 9.85051 48.0259 13.0982C48.0259 14.7754 46.0006 15.2296 44.9536 15.2296C43.0314 15.2296 41.7042 14.181 41.7042 12.3996V12.3301H40.132V12.4349C40.132 15.1592 42.0748 16.6262 44.9736 16.6262Z" fill="var(--fill-0, #1A222E)"/>
</svg>
